<svg width="575" height="575" viewBox="0 0 575 575" fill="none" xmlns="http://www.w3.org/2000/svg">
<path d="M44.5156 410.008H49.7726C52.1821 401.962 53.7615 393.691 54.4863 385.324C55.6316 369.832 48.1279 346.116 34.3834 338.172C20.6389 330.228 13.194 340.052 17.8049 348.451C22.4157 356.851 37.9664 380.742 38.172 401.3L44.5156 410.008Z" fill="#D11F40"/>
<path d="M43.2527 410.008H44.7212C46.1559 399.862 46.1559 389.566 44.7212 379.42C42.3423 359.318 35.7344 349.978 29.5964 343.488C29.462 343.346 29.2767 343.263 29.0812 343.257C28.8856 343.252 28.6959 343.324 28.5538 343.459C28.4116 343.593 28.3287 343.778 28.3232 343.974C28.3177 344.169 28.3901 344.359 28.5244 344.501C34.5009 350.801 40.9326 359.905 43.2087 379.582C44.6634 389.671 44.6782 399.915 43.2527 410.008Z" fill="white"/>
<path d="M44.9413 410.008C42.2394 397.262 29.9634 382.108 18.3774 379.494C4.94132 376.557 -1.5932 383.65 0.330447 389.773C2.25409 395.896 12.8708 398.745 23.1792 403.547C26.6503 405.154 29.8231 407.338 32.5625 410.008H44.9413Z" fill="#D11F40"/>
<path d="M40.0515 410.008H41.6227C35.9399 395.72 23.0178 385.529 12.4451 384.589C12.3494 384.579 12.2526 384.588 12.1605 384.616C12.0684 384.644 11.9829 384.691 11.909 384.752C11.835 384.814 11.7742 384.89 11.7301 384.975C11.686 385.061 11.6595 385.154 11.6521 385.25C11.6399 385.346 11.6476 385.444 11.6747 385.537C11.7018 385.63 11.7478 385.716 11.8099 385.79C11.8719 385.865 11.9485 385.926 12.0351 385.969C12.1216 386.013 12.2162 386.038 12.3129 386.043C22.2982 386.939 34.5009 396.513 40.0515 410.008Z" fill="white"/>
<path d="M518.965 275.661L529.963 281.432L530.889 274.545C525.441 259.186 529.919 241.77 535.808 234.516C541.696 227.262 540.565 221.932 538.436 219.553C536.307 217.174 528.231 215.368 520.242 224.707C512.254 234.046 510.419 245.382 511.755 256.821C512.607 263.973 516.366 271.315 518.965 275.661Z" fill="#D11F40"/>
<path opacity="0.2" d="M518.965 275.661L529.963 281.432L530.889 274.545C525.441 259.186 529.919 241.77 535.808 234.516C541.696 227.262 540.565 221.932 538.436 219.553C536.307 217.174 528.231 215.368 520.242 224.707C512.254 234.046 510.419 245.382 511.755 256.821C512.607 263.973 516.366 271.315 518.965 275.661Z" fill="black"/>
<path d="M523.503 278.04L525.676 279.186C525.655 279.144 525.63 279.105 525.603 279.068C522.49 275.368 518.466 257.247 520.155 246.631C522.24 233.517 528.965 224.956 534.722 221.329C534.792 221.286 534.853 221.229 534.901 221.162C534.949 221.094 534.983 221.018 535.001 220.937C535.019 220.856 535.02 220.772 535.005 220.691C534.99 220.61 534.958 220.532 534.912 220.463C534.819 220.323 534.675 220.224 534.511 220.189C534.346 220.153 534.174 220.183 534.031 220.272C528.158 224.046 521.05 232.901 518.892 246.44C517.335 256.322 520.448 271.976 523.503 278.04Z" fill="white"/>
<path d="M530.183 249.45C533.399 257.335 533.384 261.197 528.142 262.005C523.414 262.71 517.672 268.451 523.003 277.776L554.192 294.134C554.271 292.391 554.701 290.682 555.458 289.109C556.216 287.537 557.283 286.134 558.597 284.986C563.722 279.861 568.45 275.999 567.716 270.302C566.982 264.604 562.033 259.112 561.211 254.149C560.389 249.186 562.914 246.352 568.304 240.786C573.693 235.221 578.583 226.586 571.387 222.651C564.192 218.716 555.954 225.456 552.518 229.993C549.082 234.531 545.939 236.528 539.17 236.146C532.401 235.764 526.967 241.564 530.183 249.45Z" fill="#D11F40"/>
<path d="M539.009 286.175C538.862 261.976 556.205 233.635 565.852 227.908C565.995 227.817 566.097 227.675 566.138 227.511C566.179 227.347 566.155 227.174 566.072 227.027C565.984 226.886 565.845 226.784 565.684 226.743C565.522 226.702 565.351 226.725 565.206 226.807C555.426 232.68 537.937 261.036 537.746 285.544L539.009 286.175Z" fill="white"/>
<path d="M543.649 261.021C543.516 261.051 543.377 261.036 543.255 260.977C543.132 260.919 543.033 260.82 542.973 260.698C540.172 255.472 537.814 250.019 535.925 244.398C535.9 244.319 535.891 244.236 535.898 244.154C535.905 244.071 535.928 243.991 535.966 243.917C536.004 243.843 536.057 243.778 536.12 243.724C536.184 243.671 536.257 243.631 536.336 243.606C536.415 243.58 536.498 243.571 536.581 243.578C536.664 243.585 536.744 243.609 536.818 243.647C536.891 243.685 536.957 243.737 537.01 243.801C537.064 243.864 537.104 243.938 537.129 244.017C539.001 249.56 541.329 254.938 544.089 260.096C544.168 260.246 544.184 260.421 544.134 260.583C544.085 260.745 543.974 260.881 543.825 260.962L543.649 261.021Z" fill="white"/>
<path d="M539.479 275.852C539.358 275.874 539.234 275.863 539.12 275.819C539.006 275.775 538.906 275.7 538.832 275.603C538.736 275.462 538.698 275.289 538.729 275.121C538.759 274.954 538.854 274.805 538.994 274.707C545.317 270.28 552.989 268.202 560.683 268.833C560.85 268.855 561.002 268.942 561.105 269.075C561.209 269.209 561.255 269.378 561.233 269.545C561.212 269.713 561.125 269.865 560.991 269.968C560.858 270.071 560.689 270.117 560.521 270.096C553.155 269.535 545.818 271.509 539.728 275.691C539.657 275.761 539.572 275.816 539.479 275.852Z" fill="white"/>
<path d="M355.191 128.026L319.406 107.365L283.635 128.026L319.406 148.686L355.191 128.026Z" fill="#F5F5F5"/>
<path d="M319.406 190.023L355.191 169.362V128.026L319.406 148.686V190.023Z" fill="#EBEBEB"/>
<path d="M326.307 176.307C326.118 176.311 325.931 176.265 325.764 176.175C325.536 176.008 325.354 175.786 325.235 175.529C325.117 175.272 325.067 174.989 325.089 174.707V170.302V169.979H325.309L328.745 167.967V172.857C328.74 173.486 328.584 174.106 328.29 174.663C327.997 175.22 327.573 175.698 327.056 176.058C326.834 176.208 326.575 176.294 326.307 176.307ZM325.647 170.625V174.678C325.622 174.866 325.646 175.058 325.715 175.235C325.784 175.412 325.897 175.569 326.043 175.691C326.162 175.744 326.293 175.764 326.422 175.748C326.552 175.733 326.674 175.682 326.777 175.603C327.217 175.296 327.579 174.89 327.834 174.419C328.089 173.947 328.23 173.422 328.246 172.886V172.534H326.968L326.719 170.816L325.647 170.625ZM327.409 171.976H328.202V168.965L326.146 170.155L327.159 170.346L327.409 171.976Z" fill="white"/>
<path d="M326.902 179.802C326.834 179.802 326.768 179.773 326.72 179.721C326.672 179.668 326.645 179.597 326.645 179.523V175.852C326.643 175.815 326.648 175.778 326.66 175.743C326.673 175.708 326.692 175.677 326.716 175.65C326.74 175.624 326.769 175.603 326.801 175.59C326.834 175.577 326.868 175.571 326.902 175.573C326.97 175.573 327.036 175.603 327.084 175.655C327.132 175.707 327.159 175.778 327.159 175.852V179.465C327.165 179.505 327.163 179.547 327.153 179.587C327.143 179.627 327.125 179.664 327.101 179.696C327.076 179.728 327.046 179.754 327.012 179.772C326.978 179.79 326.94 179.801 326.902 179.802Z" fill="white"/>
<path d="M325.323 180.727C325.274 180.727 325.226 180.713 325.185 180.687C325.143 180.661 325.11 180.624 325.088 180.581C325.068 180.551 325.054 180.516 325.048 180.481C325.042 180.445 325.045 180.408 325.054 180.373C325.064 180.338 325.081 180.306 325.105 180.278C325.129 180.251 325.158 180.229 325.191 180.213L328.377 178.363C328.409 178.345 328.444 178.333 328.481 178.328C328.517 178.323 328.554 178.326 328.59 178.335C328.625 178.345 328.658 178.361 328.687 178.384C328.716 178.406 328.741 178.434 328.759 178.466C328.793 178.531 328.801 178.606 328.782 178.677C328.763 178.747 328.718 178.808 328.656 178.848L325.455 180.683L325.323 180.727Z" fill="white"/>
<path d="M336.719 174.384C336.618 174.414 336.511 174.414 336.41 174.384C336.303 174.312 336.217 174.213 336.16 174.097C336.103 173.981 336.078 173.852 336.087 173.723V172.974C336.085 172.938 336.09 172.902 336.103 172.868C336.115 172.835 336.134 172.804 336.159 172.778C336.184 172.752 336.214 172.731 336.247 172.717C336.28 172.702 336.315 172.695 336.351 172.695C336.389 172.693 336.426 172.699 336.461 172.712C336.495 172.725 336.527 172.746 336.553 172.772C336.58 172.798 336.6 172.83 336.614 172.865C336.627 172.9 336.633 172.937 336.63 172.974V173.591C336.63 173.708 336.63 173.767 336.63 173.767C336.63 173.767 336.718 173.767 336.807 173.767C336.978 173.612 337.112 173.421 337.201 173.208C337.29 172.995 337.331 172.764 337.321 172.534V167.717C337.321 167.681 337.328 167.646 337.342 167.613C337.356 167.579 337.377 167.55 337.403 167.525C337.429 167.5 337.46 167.481 337.494 167.469C337.528 167.456 337.564 167.451 337.6 167.453C337.67 167.453 337.737 167.481 337.786 167.53C337.836 167.58 337.864 167.647 337.864 167.717V172.622C337.875 172.949 337.81 173.274 337.675 173.572C337.54 173.87 337.339 174.132 337.086 174.34C336.967 174.378 336.843 174.392 336.719 174.384Z" fill="white"/>
<path d="M333.811 170.111V169.641C333.879 168.418 334.234 167.228 334.846 166.167C335.458 165.106 336.311 164.204 337.335 163.532C337.702 163.224 338.154 163.035 338.632 162.993C339.109 162.951 339.587 163.056 340.003 163.295C340.418 163.534 340.75 163.895 340.953 164.328C341.156 164.762 341.221 165.248 341.138 165.72V165.882L333.811 170.111ZM338.98 163.591C338.494 163.606 338.022 163.753 337.614 164.017C336.742 164.592 336.003 165.347 335.446 166.23C334.889 167.114 334.527 168.107 334.384 169.142L340.58 165.573C340.604 165.227 340.538 164.88 340.389 164.566C340.24 164.252 340.012 163.982 339.729 163.782C339.501 163.652 339.242 163.586 338.98 163.591Z" fill="white"/>
<path d="M346.52 168.745C346.454 168.745 346.391 168.718 346.343 168.669C346.295 168.619 346.266 168.552 346.263 168.481V159.112C346.263 159.038 346.29 158.967 346.338 158.915C346.387 158.863 346.452 158.833 346.52 158.833C346.588 158.833 346.654 158.863 346.702 158.915C346.75 158.967 346.778 159.038 346.778 159.112V168.481C346.774 168.552 346.745 168.619 346.698 168.669C346.65 168.718 346.586 168.745 346.52 168.745Z" fill="white"/>
<path d="M345.793 161.241H345.69C345.657 161.227 345.626 161.206 345.6 161.18C345.575 161.154 345.554 161.122 345.541 161.088C345.527 161.054 345.52 161.018 345.521 160.981C345.521 160.944 345.529 160.908 345.544 160.874L346.527 158.613L347.614 159.876C347.637 159.903 347.655 159.934 347.666 159.968C347.677 160.002 347.681 160.037 347.678 160.073C347.676 160.108 347.666 160.143 347.65 160.174C347.634 160.206 347.612 160.234 347.585 160.258C347.558 160.281 347.526 160.298 347.493 160.309C347.459 160.32 347.423 160.325 347.388 160.322C347.352 160.319 347.318 160.31 347.286 160.293C347.254 160.277 347.226 160.255 347.203 160.228L346.674 159.641L346.043 161.109C346.018 161.153 345.981 161.188 345.937 161.211C345.893 161.235 345.843 161.245 345.793 161.241Z" fill="white"/>
<path d="M349.12 167.306C349.054 167.302 348.992 167.271 348.947 167.219C348.902 167.167 348.876 167.098 348.876 167.027V157.658C348.868 157.617 348.867 157.575 348.876 157.534C348.884 157.493 348.901 157.454 348.925 157.421C348.949 157.389 348.98 157.362 349.015 157.344C349.05 157.325 349.088 157.316 349.127 157.316C349.166 157.316 349.204 157.325 349.239 157.344C349.274 157.362 349.305 157.389 349.329 157.421C349.353 157.454 349.37 157.493 349.378 157.534C349.387 157.575 349.386 157.617 349.378 157.658V167.027C349.378 167.101 349.35 167.172 349.302 167.224C349.254 167.277 349.188 167.306 349.12 167.306Z" fill="white"/>
<path d="M348.334 159.788H348.231C348.197 159.773 348.167 159.752 348.141 159.726C348.115 159.7 348.095 159.669 348.081 159.635C348.068 159.6 348.061 159.564 348.061 159.527C348.062 159.491 348.07 159.454 348.084 159.421L349.068 157.159L350.155 158.422C350.203 158.474 350.23 158.542 350.23 158.613C350.23 158.684 350.203 158.752 350.155 158.804C350.1 158.853 350.03 158.881 349.956 158.881C349.883 158.881 349.812 158.853 349.758 158.804L349.244 158.202L348.613 159.67C348.583 159.715 348.54 159.749 348.491 159.77C348.441 159.791 348.387 159.797 348.334 159.788Z" fill="white"/>
<path d="M319.406 190.023L283.62 169.362L283.635 128.026L319.406 148.686V190.023Z" fill="#E0E0E0"/>
<path d="M303.459 139.479L339.215 118.804L335.177 116.469L299.406 137.144L303.459 139.479Z" fill="white"/>
<path d="M289.053 151.726L301.873 159.068C302.61 159.554 303.223 160.205 303.665 160.97C304.106 161.735 304.362 162.592 304.413 163.473V171.374C304.413 173.004 303.268 173.664 301.873 172.842L289.053 165.5C288.315 165.015 287.701 164.364 287.26 163.599C286.819 162.834 286.563 161.976 286.513 161.095V153.194C286.513 151.564 287.658 150.918 289.053 151.726Z" fill="#D11F40"/>
<path d="M288.069 153.694L288.516 153.987V162.754L288.069 162.475V153.694Z" fill="#D11F40"/>
<path d="M290.052 154.839L290.889 155.338V164.105L290.052 163.62V154.839Z" fill="#D11F40"/>
<path d="M292.034 155.984L292.481 156.263V165.045L292.034 164.766V155.984Z" fill="#D11F40"/>
<path d="M293.517 156.836L294.501 157.409V166.19L293.517 165.603V156.836Z" fill="#D11F40"/>
<path d="M295.984 158.275L296.444 158.554V167.335L295.984 167.042V158.275Z" fill="#D11F40"/>
<path d="M297.423 159.083L298.451 159.7V168.466L297.408 167.849L297.423 159.083Z" fill="#D11F40"/>
<path d="M299.949 160.566L300.396 160.845V169.611L299.949 169.332V160.566Z" fill="#D11F40"/>
<path d="M301.079 161.197L301.31 161.344V170.111L301.079 169.979V161.197Z" fill="#D11F40"/>
<path d="M299.053 160.081L299.27 160.228V168.995L299.053 168.863V160.081Z" fill="#D11F40"/>
<path d="M295.059 157.747L295.276 157.879V166.66L295.059 166.513V157.747Z" fill="#D11F40"/>
<path d="M292.871 156.484L293.101 156.631V165.412L292.871 165.265V156.484Z" fill="#D11F40"/>
<path d="M291.3 155.617L291.53 155.764V164.545L291.3 164.399V155.617Z" fill="#D11F40"/>
<path d="M289.17 154.325L289.401 154.472V163.253L289.17 163.106V154.325Z" fill="#D11F40"/>
<path d="M301.931 161.697L302.378 161.976V170.757L301.931 170.478V161.697Z" fill="#D11F40"/>
<path d="M307.481 121.139L265.719 97.0417L223.972 121.139L265.719 145.25L307.481 121.139Z" fill="#F5F5F5"/>
<path d="M247.82 134.912L289.582 110.816L285.529 108.481L243.782 132.578L247.82 134.912Z" fill="white"/>
<path d="M265.72 221.006L307.482 196.91V121.139L265.72 145.25V221.006Z" fill="#EBEBEB"/>
<path d="M272.621 207.365C272.43 207.368 272.241 207.317 272.078 207.218C271.846 207.054 271.662 206.832 271.543 206.574C271.424 206.316 271.376 206.032 271.402 205.749V201.344V201.021H271.637L275.058 199.009V203.899C275.051 204.529 274.894 205.147 274.601 205.704C274.307 206.26 273.885 206.739 273.37 207.1C273.149 207.256 272.89 207.347 272.621 207.365ZM271.96 201.682V205.735C271.936 205.923 271.959 206.115 272.028 206.292C272.098 206.469 272.211 206.626 272.357 206.748C272.475 206.801 272.607 206.821 272.736 206.805C272.865 206.79 272.988 206.74 273.091 206.66C273.531 206.353 273.892 205.948 274.147 205.476C274.402 205.004 274.543 204.479 274.559 203.943V203.591H273.282L273.032 201.873L271.96 201.682ZM273.722 203.033H274.589V200.023L272.533 201.227L273.546 201.403L273.722 203.033Z" fill="white"/>
<path d="M273.216 210.801C273.148 210.801 273.083 210.771 273.034 210.719C272.986 210.667 272.959 210.596 272.959 210.522V206.836C272.959 206.8 272.966 206.764 272.979 206.731C272.992 206.698 273.011 206.669 273.035 206.644C273.059 206.619 273.088 206.6 273.119 206.588C273.15 206.575 273.183 206.57 273.216 206.572C273.282 206.572 273.346 206.599 273.394 206.648C273.442 206.697 273.47 206.765 273.474 206.836V210.522C273.471 210.595 273.442 210.664 273.395 210.715C273.347 210.767 273.284 210.797 273.216 210.801Z" fill="white"/>
<path d="M271.652 211.77C271.604 211.771 271.557 211.759 271.516 211.736C271.475 211.713 271.44 211.679 271.417 211.638C271.383 211.573 271.375 211.498 271.394 211.427C271.413 211.356 271.458 211.295 271.52 211.256L274.706 209.421C274.738 209.402 274.773 209.39 274.809 209.385C274.846 209.381 274.883 209.383 274.918 209.393C274.954 209.402 274.987 209.419 275.016 209.441C275.045 209.463 275.07 209.491 275.088 209.523C275.106 209.554 275.118 209.588 275.122 209.623C275.127 209.659 275.124 209.694 275.115 209.729C275.105 209.763 275.089 209.795 275.066 209.823C275.044 209.851 275.016 209.874 274.985 209.89L271.784 211.741C271.744 211.764 271.698 211.774 271.652 211.77Z" fill="white"/>
<path d="M283.033 205.382C282.926 205.383 282.82 205.358 282.724 205.309C282.617 205.237 282.531 205.138 282.474 205.022C282.417 204.906 282.392 204.777 282.401 204.648V203.885C282.401 203.849 282.409 203.813 282.423 203.78C282.437 203.747 282.458 203.717 282.484 203.692C282.51 203.668 282.541 203.648 282.575 203.636C282.608 203.624 282.644 203.618 282.68 203.62C282.715 203.62 282.749 203.627 282.782 203.64C282.814 203.654 282.843 203.673 282.867 203.698C282.892 203.722 282.911 203.751 282.925 203.783C282.938 203.815 282.945 203.85 282.945 203.885V204.648C282.945 204.751 282.945 204.81 282.945 204.824C282.945 204.839 283.033 204.824 283.121 204.824C283.292 204.666 283.427 204.473 283.516 204.257C283.605 204.041 283.645 203.809 283.635 203.576V198.686C283.635 198.612 283.664 198.541 283.717 198.489C283.769 198.437 283.84 198.407 283.914 198.407C283.987 198.411 284.056 198.441 284.107 198.493C284.159 198.545 284.189 198.613 284.193 198.686V203.576C284.207 203.905 284.142 204.232 284.004 204.531C283.866 204.83 283.659 205.091 283.4 205.294C283.286 205.351 283.16 205.381 283.033 205.382Z" fill="white"/>
<path d="M280.125 201.109V200.625C280.195 199.404 280.55 198.217 281.162 197.158C281.774 196.1 282.626 195.2 283.65 194.531C284.016 194.222 284.469 194.034 284.946 193.992C285.423 193.949 285.902 194.054 286.317 194.293C286.732 194.532 287.064 194.893 287.267 195.327C287.47 195.761 287.535 196.247 287.453 196.719V196.88L280.125 201.109ZM285.294 194.575C284.81 194.597 284.34 194.744 283.929 195.001C283.055 195.577 282.314 196.334 281.757 197.221C281.2 198.107 280.839 199.103 280.698 200.14L286.895 196.572C286.917 196.223 286.85 195.875 286.701 195.559C286.552 195.243 286.326 194.97 286.043 194.766C285.813 194.641 285.556 194.575 285.294 194.575Z" fill="white"/>
<path d="M292.893 199.744C292.825 199.744 292.759 199.714 292.711 199.662C292.663 199.61 292.636 199.539 292.636 199.465V190.096C292.636 190.022 292.663 189.951 292.711 189.899C292.759 189.846 292.825 189.817 292.893 189.817C292.961 189.817 293.027 189.846 293.075 189.899C293.123 189.951 293.15 190.022 293.15 190.096V199.465C293.15 199.539 293.123 199.61 293.075 199.662C293.027 199.714 292.961 199.744 292.893 199.744Z" fill="white"/>
<path d="M292.107 192.24H292.005C291.971 192.227 291.941 192.208 291.916 192.183C291.89 192.158 291.87 192.128 291.856 192.095C291.842 192.062 291.835 192.027 291.836 191.991C291.836 191.955 291.843 191.92 291.858 191.887L292.842 189.626L293.928 190.889C293.975 190.943 293.998 191.014 293.993 191.086C293.987 191.158 293.953 191.224 293.899 191.271C293.844 191.317 293.774 191.341 293.702 191.335C293.63 191.33 293.564 191.296 293.517 191.241L292.988 190.639L292.357 192.108C292.332 192.151 292.296 192.187 292.251 192.21C292.207 192.233 292.157 192.244 292.107 192.24Z" fill="white"/>
<path d="M295.434 198.29C295.37 198.29 295.308 198.262 295.262 198.212C295.216 198.163 295.191 198.096 295.191 198.026V188.657C295.189 188.621 295.194 188.585 295.205 188.551C295.217 188.518 295.234 188.487 295.257 188.46C295.28 188.434 295.307 188.414 295.338 188.399C295.368 188.385 295.401 188.378 295.434 188.378C295.469 188.376 295.503 188.382 295.535 188.395C295.567 188.408 295.597 188.429 295.621 188.455C295.645 188.481 295.664 188.513 295.676 188.548C295.688 188.583 295.694 188.62 295.692 188.657V198.026C295.692 198.061 295.685 198.097 295.672 198.13C295.659 198.163 295.64 198.193 295.616 198.218C295.592 198.243 295.563 198.262 295.532 198.274C295.501 198.286 295.468 198.292 295.434 198.29Z" fill="white"/>
<path d="M294.662 190.786H294.545C294.479 190.754 294.428 190.699 294.4 190.631C294.373 190.563 294.372 190.488 294.398 190.419L295.382 188.158L296.483 189.421C296.529 189.474 296.554 189.541 296.554 189.611C296.554 189.681 296.529 189.749 296.483 189.802C296.457 189.829 296.426 189.849 296.392 189.864C296.358 189.878 296.322 189.885 296.285 189.885C296.248 189.885 296.212 189.878 296.178 189.864C296.144 189.849 296.113 189.829 296.087 189.802L295.573 189.2L294.941 190.669C294.913 190.714 294.87 190.75 294.82 190.771C294.77 190.792 294.715 190.798 294.662 190.786Z" fill="white"/>
<path d="M265.719 221.006L223.972 196.91V121.139L265.719 145.25V221.006Z" fill="#E0E0E0"/>
<path d="M232.46 181.153L245.264 188.495C246.005 188.979 246.622 189.629 247.066 190.394C247.51 191.159 247.768 192.018 247.819 192.901V200.816C247.819 202.431 246.674 203.092 245.264 202.284L232.46 194.942C231.719 194.46 231.103 193.809 230.661 193.044C230.22 192.278 229.966 191.419 229.919 190.537V182.636C229.919 180.933 231.064 180.346 232.46 181.153Z" fill="#F5F5F5"/>
<path d="M231.476 183.121L231.923 183.415V192.181L231.476 191.902V183.121Z" fill="#E0E0E0"/>
<path d="M233.458 184.266L234.295 184.766V193.547L233.458 193.048V184.266Z" fill="#E0E0E0"/>
<path d="M235.426 185.412L235.887 185.691L235.873 194.472L235.426 194.193V185.412Z" fill="#E0E0E0"/>
<path d="M236.923 186.263L237.892 186.836V195.617L236.923 195.03V186.263Z" fill="#E0E0E0"/>
<path d="M239.391 187.702L239.838 187.981V196.763L239.391 196.469V187.702Z" fill="#E0E0E0"/>
<path d="M240.815 188.51L241.858 189.127V197.893L240.815 197.277V188.51Z" fill="#E0E0E0"/>
<path d="M243.356 189.979L243.803 190.272V199.039L243.356 198.76V189.979Z" fill="#E0E0E0"/>
<path d="M244.486 190.625L244.716 190.771V199.553L244.486 199.406V190.625Z" fill="#E0E0E0"/>
<path d="M242.46 189.509L242.677 189.655V198.422L242.46 198.29V189.509Z" fill="#E0E0E0"/>
<path d="M238.466 187.174L238.682 187.306V196.087L238.466 195.94V187.174Z" fill="#E0E0E0"/>
<path d="M236.278 185.911L236.495 186.058V194.839L236.278 194.692V185.911Z" fill="#E0E0E0"/>
<path d="M234.707 185.045L234.937 185.191V193.973L234.707 193.826V185.045Z" fill="#E0E0E0"/>
<path d="M232.577 183.752L232.807 183.899V192.68L232.577 192.534V183.752Z" fill="#E0E0E0"/>
<path d="M245.337 191.124L245.784 191.403V200.184L245.337 199.905V191.124Z" fill="#E0E0E0"/>
<path d="M243.782 142.357L247.82 144.692V134.912L243.782 132.578V142.357Z" fill="#F0F0F0"/>
<path d="M182.21 200.346L152.386 183.136L110.639 207.233L140.463 224.457L182.21 200.346Z" fill="#F5F5F5"/>
<path d="M140.463 293.326L182.21 269.23V200.346L140.463 224.457V293.326Z" fill="#EBEBEB"/>
<path d="M147.35 279.626C147.163 279.63 146.979 279.579 146.821 279.479C146.59 279.314 146.407 279.092 146.288 278.835C146.17 278.577 146.121 278.293 146.146 278.011V273.606V273.282H146.366L149.802 271.271V276.161C149.795 276.79 149.638 277.408 149.344 277.965C149.051 278.522 148.629 279 148.113 279.362C147.886 279.516 147.623 279.607 147.35 279.626ZM146.704 273.943V277.996C146.676 278.185 146.698 278.377 146.768 278.555C146.837 278.733 146.952 278.889 147.1 279.009C147.22 279.057 147.35 279.073 147.478 279.058C147.606 279.043 147.729 278.996 147.834 278.921C148.274 278.614 148.636 278.209 148.891 277.737C149.146 277.265 149.287 276.741 149.303 276.205V275.852H148.025L147.775 274.134L146.704 273.943ZM148.466 275.294H149.259V272.269L147.203 273.473L148.216 273.65L148.466 275.294Z" fill="white"/>
<path d="M147.959 283.121C147.891 283.121 147.826 283.092 147.777 283.039C147.729 282.987 147.702 282.916 147.702 282.842V279.156C147.702 279.12 147.709 279.085 147.722 279.052C147.735 279.018 147.754 278.989 147.778 278.964C147.802 278.939 147.831 278.92 147.862 278.908C147.893 278.895 147.926 278.89 147.959 278.892C148.024 278.892 148.086 278.92 148.132 278.969C148.177 279.019 148.203 279.086 148.203 279.156V282.842C148.203 282.913 148.178 282.982 148.133 283.034C148.087 283.086 148.025 283.117 147.959 283.121Z" fill="white"/>
<path d="M146.381 284.031C146.333 284.034 146.285 284.023 146.244 284C146.202 283.976 146.168 283.941 146.146 283.899C146.125 283.869 146.11 283.835 146.103 283.798C146.096 283.762 146.097 283.725 146.105 283.689C146.113 283.653 146.129 283.619 146.151 283.589C146.173 283.56 146.202 283.535 146.234 283.517L149.435 281.682C149.467 281.663 149.502 281.652 149.538 281.647C149.575 281.642 149.612 281.644 149.647 281.654C149.683 281.663 149.716 281.68 149.745 281.702C149.774 281.725 149.798 281.753 149.817 281.785C149.835 281.815 149.847 281.849 149.851 281.885C149.856 281.92 149.853 281.956 149.844 281.99C149.834 282.024 149.818 282.056 149.795 282.084C149.773 282.112 149.745 282.135 149.714 282.152L146.513 284.002C146.473 284.025 146.427 284.036 146.381 284.031Z" fill="white"/>
<path d="M157.775 277.702C157.668 277.703 157.562 277.678 157.467 277.629C157.36 277.557 157.273 277.458 157.217 277.342C157.16 277.226 157.135 277.097 157.144 276.968V276.205C157.144 276.135 157.172 276.067 157.221 276.018C157.271 275.968 157.338 275.94 157.408 275.94C157.444 275.938 157.48 275.944 157.514 275.956C157.548 275.968 157.579 275.988 157.605 276.012C157.631 276.037 157.652 276.067 157.666 276.1C157.68 276.133 157.687 276.169 157.687 276.205V276.968C157.687 277.071 157.687 277.13 157.687 277.144C157.687 277.159 157.775 277.144 157.863 277.144C158.032 276.984 158.165 276.79 158.253 276.575C158.342 276.36 158.384 276.129 158.377 275.896V271.006C158.368 270.965 158.368 270.923 158.377 270.882C158.386 270.841 158.404 270.802 158.43 270.769C158.457 270.737 158.49 270.71 158.528 270.692C158.565 270.673 158.607 270.664 158.649 270.664C158.691 270.664 158.733 270.673 158.77 270.692C158.808 270.71 158.842 270.737 158.868 270.769C158.894 270.802 158.912 270.841 158.921 270.882C158.93 270.923 158.93 270.965 158.921 271.006V275.896C158.933 276.223 158.869 276.549 158.734 276.847C158.599 277.145 158.396 277.408 158.142 277.614C158.028 277.671 157.903 277.701 157.775 277.702Z" fill="white"/>
<path d="M154.868 273.444V272.959C154.937 271.739 155.293 270.551 155.905 269.493C156.517 268.435 157.369 267.535 158.392 266.865C158.757 266.554 159.209 266.363 159.687 266.319C160.165 266.275 160.644 266.38 161.06 266.62C161.475 266.86 161.806 267.223 162.007 267.659C162.208 268.094 162.268 268.582 162.181 269.053V269.215L154.868 273.444ZM160.037 266.909C159.552 266.932 159.082 267.078 158.671 267.335C157.797 267.912 157.057 268.669 156.5 269.556C155.943 270.442 155.581 271.437 155.441 272.475L161.637 268.892C161.658 268.546 161.591 268.2 161.442 267.887C161.293 267.573 161.067 267.303 160.786 267.1C160.561 266.973 160.309 266.902 160.051 266.895L160.037 266.909Z" fill="white"/>
<path d="M167.636 272.064C167.568 272.064 167.503 272.034 167.454 271.982C167.406 271.93 167.379 271.859 167.379 271.785V262.416C167.379 262.342 167.406 262.271 167.454 262.219C167.503 262.166 167.568 262.137 167.636 262.137C167.705 262.137 167.77 262.166 167.818 262.219C167.867 262.271 167.894 262.342 167.894 262.416V271.785C167.894 271.859 167.867 271.93 167.818 271.982C167.77 272.034 167.705 272.064 167.636 272.064Z" fill="white"/>
<path d="M166.85 264.633H166.748C166.714 264.621 166.684 264.601 166.659 264.576C166.633 264.551 166.613 264.521 166.599 264.489C166.585 264.456 166.578 264.42 166.579 264.385C166.579 264.349 166.587 264.314 166.601 264.281L167.585 262.02L168.671 263.282C168.718 263.337 168.741 263.408 168.736 263.479C168.73 263.551 168.696 263.618 168.642 263.664C168.615 263.687 168.584 263.705 168.55 263.716C168.516 263.727 168.48 263.731 168.445 263.729C168.373 263.723 168.307 263.689 168.26 263.635L167.731 263.033L167.1 264.501C167.075 264.545 167.039 264.58 166.994 264.603C166.95 264.627 166.9 264.637 166.85 264.633Z" fill="white"/>
<path d="M170.177 270.61C170.111 270.61 170.047 270.583 169.999 270.533C169.951 270.484 169.923 270.417 169.919 270.346V260.977C169.919 260.903 169.946 260.832 169.995 260.78C170.043 260.727 170.108 260.698 170.177 260.698C170.211 260.696 170.245 260.702 170.277 260.715C170.309 260.728 170.339 260.749 170.363 260.775C170.387 260.801 170.406 260.833 170.418 260.868C170.431 260.903 170.436 260.94 170.434 260.977V270.346C170.434 270.382 170.427 270.417 170.414 270.45C170.401 270.483 170.382 270.513 170.358 270.538C170.334 270.563 170.305 270.582 170.274 270.594C170.243 270.607 170.21 270.612 170.177 270.61Z" fill="white"/>
<path d="M169.391 263.165C169.357 263.177 169.321 263.177 169.288 263.165C169.255 263.152 169.224 263.133 169.199 263.108C169.173 263.083 169.153 263.053 169.139 263.02C169.125 262.987 169.119 262.952 169.119 262.916C169.119 262.88 169.127 262.845 169.141 262.813L170.125 260.551L171.211 261.814C171.26 261.866 171.287 261.934 171.287 262.005C171.287 262.076 171.26 262.144 171.211 262.196C171.186 262.222 171.155 262.243 171.121 262.257C171.087 262.271 171.05 262.279 171.013 262.279C170.976 262.279 170.94 262.271 170.906 262.257C170.872 262.243 170.841 262.222 170.815 262.196L170.301 261.594L169.67 263.062C169.638 263.104 169.594 263.136 169.545 263.154C169.496 263.172 169.442 263.176 169.391 263.165Z" fill="white"/>
<path d="M140.463 293.326L110.639 276.117V207.233L140.463 224.457V293.326Z" fill="#E0E0E0"/>
<path d="M124.486 225.015L128.524 227.35V217.57L124.486 215.235V225.015Z" fill="#F5F5F5"/>
<path d="M128.524 217.57L170.286 193.459L166.233 191.124L124.486 215.235L128.524 217.57Z" fill="white"/>
<path d="M128.524 258.892L74.8532 227.908L21.1675 258.892L74.8532 289.89L128.524 258.892Z" fill="#F5F5F5"/>
<path d="M74.8533 331.212L128.524 300.228V258.892L74.8533 289.89V331.212Z" fill="#EBEBEB"/>
<path d="M81.7403 317.497C81.5545 317.493 81.3726 317.443 81.2116 317.35C80.9821 317.184 80.7994 316.962 80.6811 316.704C80.5627 316.447 80.5128 316.164 80.5361 315.882V311.476V311.153H80.7564L84.1925 309.127V314.031C84.183 314.658 84.025 315.274 83.7315 315.828C83.4379 316.382 83.0172 316.858 82.5039 317.218C82.2779 317.376 82.0147 317.472 81.7403 317.497ZM81.0795 311.814V315.867C81.0534 316.053 81.0762 316.244 81.1457 316.419C81.2152 316.594 81.329 316.748 81.4759 316.865C81.5962 316.92 81.7288 316.942 81.8603 316.93C81.9918 316.917 82.1176 316.869 82.2248 316.792C82.663 316.483 83.0236 316.078 83.2784 315.606C83.5332 315.135 83.6752 314.611 83.6933 314.075V313.708H82.3717L82.1221 311.99L81.0795 311.814ZM82.8416 313.165H83.6933V310.155L81.6522 311.359L82.6654 311.535L82.8416 313.165Z" fill="white"/>
<path d="M82.3359 320.992C82.3039 320.992 82.2722 320.985 82.2426 320.972C82.213 320.958 82.1861 320.939 82.1635 320.914C82.1408 320.89 82.1229 320.861 82.1106 320.829C82.0984 320.797 82.0921 320.762 82.0921 320.727V317.042C82.0832 317.001 82.083 316.958 82.0915 316.917C82.1 316.876 82.1169 316.838 82.141 316.805C82.1651 316.772 82.1958 316.745 82.2307 316.727C82.2656 316.709 82.3039 316.699 82.3426 316.699C82.3814 316.699 82.4197 316.709 82.4546 316.727C82.4895 316.745 82.5202 316.772 82.5443 316.805C82.5684 316.838 82.5853 316.876 82.5938 316.917C82.6023 316.958 82.6021 317.001 82.5932 317.042V320.727C82.5933 320.763 82.5866 320.799 82.5735 320.832C82.5604 320.865 82.5412 320.895 82.5171 320.92C82.493 320.944 82.4645 320.964 82.4333 320.976C82.4022 320.988 82.369 320.994 82.3359 320.992Z" fill="white"/>
<path d="M80.7563 321.902C80.6975 321.898 80.6414 321.876 80.596 321.839C80.5506 321.801 80.5182 321.75 80.5035 321.693C80.4889 321.636 80.4926 321.576 80.5143 321.521C80.536 321.466 80.5744 321.42 80.6241 321.388L83.8253 319.553C83.8544 319.532 83.8877 319.517 83.9228 319.511C83.958 319.504 83.9942 319.504 84.029 319.513C84.0638 319.521 84.0964 319.537 84.1246 319.559C84.1528 319.581 84.1759 319.609 84.1924 319.641C84.2135 319.671 84.228 319.705 84.235 319.742C84.242 319.778 84.2413 319.815 84.233 319.851C84.2247 319.887 84.209 319.921 84.1868 319.95C84.1646 319.98 84.1365 320.005 84.1043 320.023L80.9031 321.902H80.7563Z" fill="white"/>
<path d="M92.1514 315.588C92.0547 315.609 91.9544 315.609 91.8577 315.588C91.7455 315.516 91.6548 315.416 91.5953 315.297C91.5359 315.178 91.5098 315.045 91.52 314.912V314.164C91.52 314.09 91.5494 314.019 91.6017 313.966C91.654 313.914 91.725 313.885 91.799 313.885C91.873 313.885 91.9439 313.914 91.9963 313.966C92.0486 314.019 92.078 314.09 92.078 314.164V314.912C92.0578 314.974 92.0578 315.041 92.078 315.103C92.078 315.103 92.1661 315.103 92.2689 315.103C92.4346 314.942 92.5646 314.747 92.6506 314.532C92.7366 314.317 92.7766 314.087 92.7681 313.855V308.965C92.7717 308.892 92.8022 308.824 92.8538 308.772C92.9054 308.72 92.9743 308.69 93.0471 308.686C93.1211 308.686 93.1921 308.716 93.2444 308.768C93.2967 308.82 93.3261 308.891 93.3261 308.965V313.855C93.3382 314.182 93.2742 314.508 93.1392 314.806C93.0041 315.104 92.8017 315.367 92.5479 315.573C92.4187 315.609 92.2829 315.614 92.1514 315.588Z" fill="white"/>
<path d="M89.2585 311.315V310.83C89.3222 309.608 89.6749 308.419 90.2875 307.359C90.9002 306.3 91.7553 305.401 92.7827 304.736C93.1474 304.424 93.5998 304.233 94.0776 304.189C94.5554 304.145 95.0351 304.251 95.4506 304.491C95.8661 304.731 96.197 305.093 96.3977 305.529C96.5984 305.965 96.659 306.452 96.5712 306.924V307.086L89.2585 311.315ZM94.4273 304.78C93.939 304.805 93.4645 304.951 93.047 305.206C92.176 305.784 91.4384 306.542 90.8838 307.428C90.3292 308.315 89.9703 309.309 89.8312 310.346L96.0132 306.763C96.0369 306.418 95.9726 306.072 95.8262 305.759C95.6798 305.445 95.4561 305.174 95.1762 304.971C94.9481 304.842 94.6895 304.776 94.4273 304.78Z" fill="white"/>
<path d="M102.027 309.949C101.992 309.951 101.958 309.945 101.926 309.932C101.894 309.919 101.864 309.898 101.84 309.872C101.816 309.846 101.797 309.814 101.785 309.779C101.773 309.745 101.767 309.707 101.769 309.67V300.302C101.76 300.261 101.76 300.218 101.769 300.177C101.777 300.136 101.794 300.098 101.818 300.065C101.842 300.032 101.873 300.005 101.908 299.987C101.943 299.968 101.981 299.959 102.02 299.959C102.059 299.959 102.097 299.968 102.132 299.987C102.167 300.005 102.197 300.032 102.221 300.065C102.245 300.098 102.262 300.136 102.271 300.177C102.279 300.218 102.279 300.261 102.27 300.302V309.67C102.272 309.706 102.267 309.742 102.256 309.776C102.244 309.81 102.227 309.84 102.204 309.867C102.181 309.893 102.154 309.913 102.123 309.928C102.093 309.942 102.06 309.949 102.027 309.949Z" fill="white"/>
<path d="M101.314 302.445H101.197C101.163 302.431 101.132 302.41 101.107 302.384C101.082 302.357 101.062 302.326 101.05 302.291C101.038 302.256 101.032 302.22 101.035 302.183C101.038 302.146 101.048 302.111 101.065 302.078L102.034 299.817L103.135 301.08C103.184 301.136 103.208 301.21 103.203 301.284C103.197 301.358 103.162 301.428 103.106 301.476C103.049 301.525 102.976 301.549 102.902 301.544C102.827 301.538 102.758 301.503 102.709 301.447L102.195 300.845L101.564 302.313C101.538 302.356 101.501 302.39 101.457 302.413C101.413 302.437 101.364 302.448 101.314 302.445Z" fill="white"/>
<path d="M104.567 308.495C104.499 308.495 104.434 308.466 104.385 308.414C104.337 308.361 104.31 308.29 104.31 308.216V298.848C104.31 298.774 104.337 298.703 104.385 298.65C104.434 298.598 104.499 298.569 104.567 298.569C104.636 298.569 104.701 298.598 104.749 298.65C104.798 298.703 104.825 298.774 104.825 298.848V308.216C104.825 308.29 104.798 308.361 104.749 308.414C104.701 308.466 104.636 308.495 104.567 308.495Z" fill="white"/>
<path d="M103.781 300.992H103.678C103.645 300.979 103.615 300.959 103.589 300.934C103.564 300.91 103.544 300.88 103.53 300.847C103.516 300.814 103.509 300.779 103.509 300.743C103.51 300.707 103.517 300.672 103.532 300.639L104.515 298.363L105.602 299.626C105.628 299.652 105.649 299.683 105.663 299.717C105.677 299.751 105.685 299.787 105.685 299.824C105.685 299.861 105.677 299.898 105.663 299.932C105.649 299.966 105.628 299.997 105.602 300.023C105.577 300.048 105.548 300.069 105.515 300.083C105.482 300.097 105.447 300.104 105.411 300.104C105.376 300.104 105.34 300.097 105.307 300.083C105.275 300.069 105.245 300.048 105.22 300.023L104.692 299.42L104.06 300.889C104.029 300.932 103.986 300.965 103.937 300.983C103.887 301.002 103.833 301.005 103.781 300.992Z" fill="white"/>
<path d="M74.8533 331.212L21.1675 300.228V258.892L74.8533 289.89V331.212Z" fill="#E0E0E0"/>
<path d="M45.9839 283.003L50.0221 285.338V275.559L45.9839 273.224V283.003Z" fill="#F5F5F5"/>
<path d="M50.0221 275.559L103.708 244.575L99.6697 242.225L45.9839 273.224L50.0221 275.559Z" fill="white"/>
<path d="M29.6697 284.472L42.4744 291.814C43.2152 292.297 43.8323 292.948 44.2761 293.713C44.7198 294.478 44.9779 295.336 45.0295 296.219V304.134C45.0295 305.749 43.8841 306.41 42.4744 305.603L29.6697 298.26C28.9292 297.778 28.3131 297.128 27.8716 296.362C27.4302 295.597 27.1758 294.738 27.1293 293.855V285.955C27.1293 284.31 28.2747 283.723 29.6697 284.472Z" fill="#F5F5F5"/>
<path d="M28.6859 286.44L29.1329 286.719V295.5L28.6859 295.221V286.44Z" fill="#E0E0E0"/>
<path d="M30.6536 287.585L31.5053 288.084V296.851L30.6536 296.366V287.585Z" fill="#E0E0E0"/>
<path d="M32.636 288.73L33.0965 289.009L33.083 297.791L32.636 297.512V288.73Z" fill="#E0E0E0"/>
<path d="M34.1338 289.582L35.1176 290.155L35.103 298.936L34.1338 298.349V289.582Z" fill="#E0E0E0"/>
<path d="M36.6007 291.021L37.0477 291.3V300.081L36.6007 299.788V291.021Z" fill="#E0E0E0"/>
<path d="M38.0251 291.829L39.0677 292.445V301.212L38.0251 300.595V291.829Z" fill="#E0E0E0"/>
<path d="M40.5655 293.312L41.0125 293.591V302.357L40.5655 302.078V293.312Z" fill="#E0E0E0"/>
<path d="M41.6962 293.943L41.9264 294.09V302.857L41.6962 302.724V293.943Z" fill="#E0E0E0"/>
<path d="M39.6697 292.827L39.8865 292.959V301.741L39.6697 301.608V292.827Z" fill="#E0E0E0"/>
<path d="M35.6756 290.492L35.8923 290.625V299.406L35.6756 299.259V290.492Z" fill="#E0E0E0"/>
<path d="M33.4877 289.23L33.7179 289.376V298.143L33.4877 298.011V289.23Z" fill="#E0E0E0"/>
<path d="M31.9164 288.363L32.1467 288.51V297.291L31.9164 297.144V288.363Z" fill="#E0E0E0"/>
<path d="M29.7872 287.071L30.0175 287.218V295.984L29.7872 295.852V287.071Z" fill="#E0E0E0"/>
<path d="M42.548 294.442L42.9949 294.736V303.503L42.548 303.224V294.442Z" fill="#E0E0E0"/>
<path d="M116.601 176.249L74.8533 152.137L33.0912 176.249L74.8533 200.346L116.601 176.249Z" fill="#F5F5F5"/>
<path d="M74.8533 283.003L116.601 258.892V176.249L74.8533 200.346V283.003Z" fill="#EBEBEB"/>
<path d="M81.7403 269.288C81.5557 269.29 81.3738 269.244 81.2116 269.156C80.9821 268.99 80.7994 268.768 80.6811 268.511C80.5627 268.253 80.5128 267.97 80.5361 267.688V263.282V262.959H80.7564L84.1925 260.948V265.838C84.1841 266.467 84.0267 267.085 83.7332 267.641C83.4396 268.198 83.0183 268.677 82.5039 269.039C82.2756 269.187 82.0122 269.273 81.7403 269.288ZM81.0795 263.606V267.673C81.0562 267.859 81.0803 268.049 81.1496 268.223C81.2189 268.398 81.3312 268.552 81.4759 268.672C81.5962 268.727 81.7288 268.749 81.8603 268.736C81.9918 268.723 82.1176 268.675 82.2248 268.598C82.6633 268.287 83.0239 267.878 83.2786 267.404C83.5333 266.931 83.6752 266.404 83.6933 265.867V265.514H82.3717L82.1221 263.796L81.0795 263.606ZM82.8416 264.956H83.6933V261.946L81.6522 263.15L82.6654 263.327L82.8416 264.956Z" fill="white"/>
<path d="M82.3365 272.783C82.3033 272.783 82.2705 272.776 82.24 272.762C82.2095 272.748 82.182 272.727 82.1592 272.701C82.1363 272.675 82.1187 272.644 82.1072 272.61C82.0958 272.576 82.0909 272.54 82.0927 272.504V268.833C82.0909 268.797 82.0958 268.761 82.1072 268.727C82.1187 268.694 82.1363 268.663 82.1592 268.637C82.182 268.611 82.2095 268.59 82.24 268.576C82.2705 268.561 82.3033 268.554 82.3365 268.554C82.3708 268.552 82.4052 268.558 82.4373 268.571C82.4694 268.584 82.4986 268.605 82.5229 268.631C82.5472 268.657 82.5661 268.689 82.5783 268.724C82.5905 268.759 82.5958 268.796 82.5939 268.833V272.504C82.5958 272.541 82.5905 272.579 82.5783 272.613C82.5661 272.648 82.5472 272.68 82.5229 272.706C82.4986 272.733 82.4694 272.753 82.4373 272.766C82.4052 272.78 82.3708 272.785 82.3365 272.783Z" fill="white"/>
<path d="M80.7563 273.708C80.6975 273.705 80.6414 273.682 80.596 273.645C80.5506 273.607 80.5182 273.556 80.5035 273.499C80.4889 273.442 80.4926 273.382 80.5143 273.327C80.536 273.272 80.5744 273.226 80.6241 273.194L83.8253 271.344C83.8896 271.307 83.9659 271.297 84.0375 271.316C84.1091 271.336 84.1701 271.383 84.2071 271.447C84.2441 271.511 84.2541 271.587 84.2348 271.659C84.2155 271.731 84.1686 271.792 84.1043 271.829L80.9031 273.664C80.86 273.694 80.8087 273.709 80.7563 273.708Z" fill="white"/>
<path d="M92.1515 267.379C92.047 267.38 91.9448 267.349 91.8578 267.291C91.7456 267.223 91.6546 267.126 91.5949 267.009C91.5352 266.892 91.5093 266.761 91.52 266.63V265.882C91.52 265.808 91.5494 265.737 91.6017 265.684C91.6541 265.632 91.725 265.603 91.799 265.603C91.873 265.603 91.944 265.632 91.9963 265.684C92.0486 265.737 92.078 265.808 92.078 265.882V266.63C92.0578 266.693 92.0578 266.759 92.078 266.821C92.1405 266.839 92.2065 266.839 92.2689 266.821C92.4365 266.664 92.568 266.473 92.6542 266.26C92.7404 266.047 92.7793 265.817 92.7682 265.588V260.698C92.7682 260.624 92.7976 260.553 92.8499 260.501C92.9022 260.448 92.9732 260.419 93.0472 260.419C93.0844 260.417 93.1216 260.423 93.1564 260.436C93.1912 260.449 93.2229 260.47 93.2492 260.496C93.2756 260.522 93.296 260.554 93.3093 260.589C93.3226 260.624 93.3283 260.661 93.3262 260.698V265.588C93.3383 265.915 93.2743 266.24 93.1392 266.538C93.0042 266.837 92.8018 267.099 92.5479 267.306C92.4236 267.362 92.2876 267.387 92.1515 267.379Z" fill="white"/>
<path d="M89.2585 263.165V262.695C89.3246 261.472 89.6782 260.281 90.2905 259.22C90.9028 258.158 91.7566 257.256 92.7827 256.586C93.1507 256.282 93.6033 256.097 94.0794 256.058C94.5555 256.019 95.0322 256.126 95.4452 256.366C95.8582 256.606 96.1876 256.968 96.389 257.401C96.5904 257.834 96.654 258.319 96.5712 258.789V258.936L89.2585 263.165ZM94.4273 256.645C93.939 256.67 93.4645 256.816 93.047 257.071C92.1777 257.648 91.4412 258.403 90.8867 259.287C90.3322 260.17 89.9723 261.162 89.8312 262.196L96.0132 258.628C96.0398 258.282 95.9767 257.936 95.83 257.622C95.6834 257.308 95.4582 257.037 95.1762 256.836C94.9556 256.681 94.6965 256.589 94.4273 256.572V256.645Z" fill="white"/>
<path d="M102.027 261.697C101.958 261.697 101.893 261.667 101.845 261.615C101.796 261.563 101.769 261.492 101.769 261.418V252.049C101.76 252.008 101.76 251.965 101.769 251.924C101.777 251.883 101.794 251.845 101.818 251.812C101.842 251.779 101.873 251.752 101.908 251.734C101.943 251.716 101.981 251.706 102.02 251.706C102.059 251.706 102.097 251.716 102.132 251.734C102.167 251.752 102.197 251.779 102.221 251.812C102.245 251.845 102.262 251.883 102.271 251.924C102.279 251.965 102.279 252.008 102.27 252.049V261.418C102.27 261.489 102.245 261.558 102.2 261.61C102.154 261.662 102.092 261.693 102.027 261.697Z" fill="white"/>
<path d="M101.314 254.222H101.197C101.163 254.208 101.132 254.187 101.107 254.161C101.082 254.134 101.062 254.102 101.05 254.068C101.038 254.033 101.032 253.997 101.035 253.96C101.038 253.923 101.048 253.888 101.065 253.855L102.034 251.594L103.135 252.857C103.184 252.908 103.211 252.977 103.211 253.048C103.211 253.118 103.184 253.187 103.135 253.238C103.081 253.288 103.01 253.315 102.937 253.315C102.864 253.315 102.793 253.288 102.739 253.238L102.225 252.636L101.593 254.105C101.565 254.151 101.522 254.186 101.472 254.207C101.422 254.228 101.367 254.234 101.314 254.222Z" fill="white"/>
<path d="M104.567 260.228C104.5 260.225 104.437 260.194 104.389 260.142C104.341 260.091 104.313 260.022 104.31 259.949V250.581C104.31 250.507 104.337 250.436 104.385 250.383C104.434 250.331 104.499 250.302 104.567 250.302C104.636 250.302 104.701 250.331 104.749 250.383C104.798 250.436 104.825 250.507 104.825 250.581V259.949C104.821 260.022 104.793 260.091 104.746 260.142C104.698 260.194 104.635 260.225 104.567 260.228Z" fill="white"/>
<path d="M103.781 252.783H103.679C103.645 252.769 103.614 252.748 103.588 252.722C103.563 252.695 103.542 252.664 103.529 252.63C103.515 252.596 103.508 252.56 103.509 252.523C103.509 252.486 103.517 252.45 103.532 252.416L104.516 250.155L105.602 251.418C105.628 251.444 105.649 251.474 105.663 251.508C105.678 251.542 105.685 251.579 105.685 251.616C105.685 251.653 105.678 251.689 105.663 251.723C105.649 251.757 105.628 251.788 105.602 251.814C105.549 251.86 105.481 251.885 105.411 251.885C105.341 251.885 105.274 251.86 105.22 251.814L104.692 251.212L104.06 252.68C104.028 252.722 103.985 252.754 103.936 252.772C103.886 252.79 103.833 252.794 103.781 252.783Z" fill="white"/>
<path d="M74.8533 283.003L33.0912 258.892V176.249L74.8533 200.346V283.003Z" fill="#E0E0E0"/>
<path d="M52.9003 197.453L56.9532 199.788V190.023L52.9003 187.673V197.453Z" fill="#F5F5F5"/>
<path d="M56.9532 190.023L98.7007 165.911L94.6625 163.576L52.9003 187.673L56.9532 190.023Z" fill="white"/>
<path d="M41.5934 243.136L54.3981 250.478C55.1394 250.959 55.7561 251.609 56.1977 252.375C56.6393 253.141 56.8931 254 56.9385 254.883V262.783C56.9385 264.398 55.8078 265.059 54.3981 264.252L41.5934 256.909C40.8502 256.429 40.2312 255.779 39.7871 255.013C39.3431 254.248 39.0865 253.388 39.0383 252.504V244.604C39.053 242.989 40.1837 242.328 41.5934 243.136Z" fill="#F5F5F5"/>
<path d="M40.5948 245.118L41.0418 245.397V254.178L40.5948 253.884V245.118Z" fill="#E0E0E0"/>
<path d="M42.5773 246.263L43.4143 246.748V255.529L42.5773 255.03V246.263Z" fill="#E0E0E0"/>
<path d="M44.5596 247.394L45.0066 247.688V256.454L44.5596 256.175V247.394Z" fill="#E0E0E0"/>
<path d="M46.0573 248.246L47.0265 248.833V257.6L46.0573 257.027V248.246Z" fill="#E0E0E0"/>
<path d="M48.5244 249.685L48.9713 249.964V258.745L48.5244 258.466V249.685Z" fill="#E0E0E0"/>
<path d="M49.9487 250.492L50.9913 251.109V259.89L49.9487 259.274V250.492Z" fill="#E0E0E0"/>
<path d="M52.4891 251.976L52.9361 252.255V261.036L52.4891 260.742V251.976Z" fill="#E0E0E0"/>
<path d="M53.6199 252.622L53.8366 252.754V261.535L53.6199 261.388V252.622Z" fill="#E0E0E0"/>
<path d="M51.5786 251.491L51.8089 251.638V260.419L51.5786 260.272V251.491Z" fill="#E0E0E0"/>
<path d="M47.5846 249.156L47.8149 249.303V258.07L47.5846 257.937V249.156Z" fill="#E0E0E0"/>
<path d="M45.3967 247.908L45.6269 248.04V256.821L45.3967 256.675V247.908Z" fill="#E0E0E0"/>
<path d="M43.8401 247.042L44.0568 247.174V255.955L43.8401 255.808V247.042Z" fill="#E0E0E0"/>
<path d="M41.7109 245.749L41.9276 245.882V254.663L41.7109 254.516V245.749Z" fill="#E0E0E0"/>
<path d="M54.4568 253.121L54.9173 253.4V262.166L54.4568 261.887V253.121Z" fill="#E0E0E0"/>
<path d="M33.4878 403.767L193.752 496.278C195.723 497.278 197.901 497.799 200.11 497.799C202.32 497.799 204.498 497.278 206.469 496.278L557.614 293.635C561.124 291.608 561.124 288.319 557.614 286.293L397.35 193.782C395.382 192.775 393.202 192.25 390.992 192.25C388.781 192.25 386.602 192.775 384.633 193.782L33.4878 396.425C29.9782 398.451 29.9782 401.741 33.4878 403.767Z" fill="#455A64"/>
<path d="M120.11 446.719C122.843 448.097 125.86 448.815 128.921 448.815C131.981 448.815 134.999 448.097 137.731 446.719C142.621 443.899 142.621 439.376 137.731 436.513C135.001 435.128 131.983 434.406 128.921 434.406C125.859 434.406 122.841 435.128 120.11 436.513C115.22 439.376 115.22 443.929 120.11 446.719Z" fill="#263238"/>
<path d="M196.762 496.278L36.498 403.767C33.3556 401.946 33.0325 399.127 35.5142 397.1C33.9467 398.34 32.658 399.896 31.732 401.667C30.806 403.438 30.2634 405.385 30.1397 407.379V413.356C30.2603 415.562 30.8987 417.709 32.0034 419.622C33.108 421.535 34.6478 423.162 36.498 424.369L196.762 516.88C198.722 517.904 200.911 518.409 203.121 518.348V497.805C200.906 497.848 198.717 497.322 196.762 496.278Z" fill="#37474F"/>
<path d="M557.599 314.222C559.453 313.018 560.997 311.393 562.105 309.479C563.212 307.565 563.852 305.417 563.972 303.209V297.233C563.853 295.235 563.311 293.286 562.382 291.514C561.453 289.742 560.158 288.188 558.583 286.954C561.079 288.98 560.756 291.799 557.614 293.606L206.469 496.278C204.508 497.298 202.32 497.803 200.11 497.746V518.407C202.32 518.464 204.508 517.959 206.469 516.939L557.599 314.222Z" fill="#263238"/>
<path d="M220.154 477.115L66.7623 388.51C64.6478 387.291 64.6478 385.309 66.7623 384.105L363.267 212.871C364.45 212.27 365.758 211.957 367.085 211.957C368.412 211.957 369.72 212.27 370.903 212.871L524.353 301.462C526.453 302.68 526.453 304.648 524.353 305.867L227.731 477.115C226.556 477.706 225.258 478.014 223.943 478.014C222.627 478.014 221.329 477.706 220.154 477.115Z" fill="white"/>
<path d="M158.348 427.644L176.248 417.306L170.286 413.87L152.386 424.193L158.348 427.644Z" fill="#D11F40"/>
<path d="M373.091 303.664L390.991 293.327L385.015 289.89L367.13 300.228L373.091 303.664Z" fill="#D11F40"/>
<path d="M408.877 283.003L426.777 272.666L420.815 269.23L402.915 279.553L408.877 283.003Z" fill="#D11F40"/>
<path d="M466.322 246.807C467.018 247.154 467.784 247.335 468.562 247.335C469.339 247.335 470.106 247.154 470.801 246.807C471.071 246.715 471.305 246.54 471.47 246.309C471.636 246.077 471.725 245.799 471.725 245.514C471.725 245.23 471.636 244.952 471.47 244.72C471.305 244.489 471.071 244.314 470.801 244.222C470.108 243.868 469.34 243.683 468.562 243.683C467.783 243.683 467.016 243.868 466.322 244.222C466.053 244.314 465.819 244.489 465.653 244.72C465.488 244.952 465.399 245.23 465.399 245.514C465.399 245.799 465.488 246.077 465.653 246.309C465.819 246.54 466.053 246.715 466.322 246.807Z" fill="#263238"/>
<path d="M473.472 267.086C474.858 267.788 476.39 268.153 477.943 268.153C479.497 268.153 481.029 267.788 482.415 267.086C484.882 265.617 484.882 263.341 482.415 261.917C481.029 261.215 479.497 260.849 477.943 260.849C476.39 260.849 474.858 261.215 473.472 261.917C471.005 263.341 471.005 265.661 473.472 267.086Z" fill="#263238"/>
<path d="M467.159 258.099C468.803 257.144 468.715 255.559 466.968 254.545L437.599 237.556C436.654 237.049 435.602 236.774 434.53 236.754C433.457 236.733 432.395 236.968 431.432 237.438C429.787 238.393 429.875 239.978 431.623 240.992L461.079 257.981C462.014 258.473 463.05 258.739 464.105 258.759C465.16 258.78 466.206 258.554 467.159 258.099Z" fill="#263238"/>
<path d="M417.026 189.2L418.025 188.613C417.335 191.119 416.999 193.709 417.026 196.307V199.89C417.026 212.754 432.46 245.617 438.143 257.247C438.73 258.466 430.933 266.763 430.933 266.763L440.198 261.418C440.198 261.418 463.355 242.328 463.355 226.645V223.062C463.355 207.306 452.988 188.554 440.198 181.168C433.737 177.453 427.908 177.321 423.708 180.14L414.897 185.191L417.026 189.2ZM428.612 201.227C428.612 193.885 433.796 190.845 440.198 194.545C439.67 199.288 448.333 214.061 451.77 214.604C451.77 221.946 446.586 224.986 440.198 221.285C436.836 219.083 434.04 216.119 432.037 212.634C430.035 209.149 428.881 205.241 428.671 201.227H428.612Z" fill="#D11F40"/>
<path d="M407.497 205.632C407.761 221.374 431.667 266.763 431.667 266.763C431.667 266.763 454.516 247.35 454.266 231.608V228.025C454.002 212.284 443.327 193.694 430.404 186.528C417.482 179.362 407.233 186.293 407.497 202.049V205.632ZM419.098 206.777C418.98 199.435 424.12 196.307 430.566 199.89C433.973 202.032 436.827 204.948 438.897 208.4C440.966 211.852 442.192 215.743 442.475 219.758C442.607 227.1 437.468 230.228 431.006 226.645C427.603 224.499 424.752 221.582 422.683 218.131C420.615 214.68 419.386 210.791 419.098 206.777Z" fill="#D11F40"/>
<path opacity="0.1" d="M407.497 205.632C407.761 221.374 431.667 266.763 431.667 266.763C431.667 266.763 454.516 247.35 454.266 231.608V228.025C454.002 212.284 443.327 193.694 430.404 186.528C417.482 179.362 407.233 186.293 407.497 202.049V205.632ZM419.098 206.777C418.98 199.435 424.12 196.307 430.566 199.89C433.973 202.032 436.827 204.948 438.897 208.4C440.966 211.852 442.192 215.743 442.475 219.758C442.607 227.1 437.468 230.228 431.006 226.645C427.603 224.499 424.752 221.582 422.683 218.131C420.615 214.68 419.386 210.791 419.098 206.777Z" fill="black"/>
<path d="M183.546 415.573C198.392 424.119 233.194 417.908 261.285 401.682L338.451 357.144C366.542 340.918 377.261 320.86 362.386 312.328C347.511 303.796 312.68 310.037 284.559 326.249L207.54 370.727C179.464 386.939 168.715 407.071 183.546 415.573Z" fill="#F0F0F0"/>
<path d="M408.217 42.1959H408.29L420.992 34.8537H421.095C429.098 30.8009 439.788 31.9169 451.3 39.4059C474.443 54.2957 492.108 88.6569 490.772 116.131C490.096 129.832 484.898 139.23 476.866 143.371H476.792L464.076 150.713H463.988C455.985 154.78 445.28 153.65 433.753 146.175C410.625 131.271 392.96 96.9242 394.296 69.4499C395.001 55.7348 400.273 46.3368 408.217 42.1959Z" fill="#37474F"/>
<path d="M464.721 150.331L476.836 143.282H476.924C484.883 139.127 490.139 129.729 490.815 116.043C491.402 103.796 488.216 90.1841 482.46 77.541L469.743 84.8831C475.514 97.5263 478.7 111.139 478.098 123.4C477.467 136.763 472.416 146.058 464.721 150.331Z" fill="#263238"/>
<path d="M433.807 146.161C410.679 131.256 393.014 96.9095 394.35 69.4352C395.687 41.9609 415.554 31.7553 438.638 46.6452C461.722 61.5351 479.446 95.8963 478.109 123.371C476.773 150.845 456.935 161.05 433.807 146.161Z" fill="#455A64"/>
<path d="M453.194 144.222C466.836 144.883 469.053 129.538 469.347 122.93C470.521 98.701 454.28 67.1298 433.884 53.9874C429.538 50.9431 424.48 49.0717 419.2 48.5542C405.573 47.8934 403.355 63.2384 403.047 69.8464C401.872 94.0754 418.098 125.647 438.51 138.863C442.855 141.907 447.913 143.778 453.194 144.296V144.222Z" fill="#FAFAFA"/>
<path d="M433.561 100.948C433.722 100.948 433.881 100.918 434.031 100.86C434.338 100.76 434.603 100.562 434.786 100.297C434.969 100.032 435.06 99.7132 435.044 99.3912V64.3985C435.044 64.0091 434.889 63.6356 434.614 63.3602C434.339 63.0848 433.965 62.9301 433.576 62.9301C433.186 62.9301 432.813 63.0848 432.537 63.3602C432.262 63.6356 432.107 64.0091 432.107 64.3985V95.1327L415.764 74.1342C415.522 73.8226 415.167 73.6198 414.776 73.5702C414.385 73.5206 413.99 73.6284 413.679 73.8699C413.367 74.1113 413.164 74.4667 413.115 74.8577C413.065 75.2488 413.173 75.6435 413.414 75.9551L432.43 100.375C432.564 100.549 432.735 100.691 432.931 100.79C433.126 100.889 433.342 100.943 433.561 100.948Z" fill="#37474F"/>
<path d="M441.99 126.836C442.058 126.85 442.128 126.85 442.195 126.836C442.351 126.788 442.483 126.682 442.562 126.54C442.641 126.398 442.662 126.23 442.621 126.073L434.383 98.3339C434.337 98.1762 434.229 98.0435 434.085 97.965C433.94 97.8865 433.77 97.8687 433.612 97.9154C433.455 97.9621 433.322 98.0696 433.244 98.2142C433.165 98.3588 433.147 98.5286 433.194 98.6863L441.417 126.425C441.459 126.544 441.537 126.647 441.639 126.72C441.741 126.794 441.864 126.834 441.99 126.836Z" fill="#D11F40"/>
<path d="M434.031 92.4455C431.3 90.6981 428.965 91.9022 428.818 95.1327C428.827 96.8948 429.252 98.6298 430.058 100.197C430.864 101.763 432.029 103.118 433.458 104.149C436.175 105.911 438.51 104.707 438.671 101.476C438.659 99.7129 438.232 97.9769 437.426 96.4084C436.62 94.8398 435.457 93.4824 434.031 92.4455Z" fill="#D11F40"/>
<path d="M194.148 406.983L212.034 396.645L206.072 393.209L188.187 403.532L194.148 406.983Z" fill="#D11F40"/>
<path d="M229.934 386.322L247.834 375.984L241.858 372.548L223.972 382.871L229.934 386.322Z" fill="#D11F40"/>
<path d="M222.577 382.108C222.577 390.742 216.527 401.197 209.053 405.603C205.073 407.908 201.49 407.981 199.024 406.249C198.029 405.467 197.212 404.483 196.627 403.361C196.042 402.24 195.703 401.006 195.631 399.744C196.134 399.509 196.624 399.249 197.1 398.965C204.574 394.663 210.624 384.164 210.624 375.47C210.631 374.827 210.592 374.184 210.507 373.547C211.627 372.954 212.858 372.601 214.122 372.51C215.386 372.419 216.655 372.592 217.849 373.018C220.786 374.252 222.577 377.438 222.577 382.108Z" fill="#263238"/>
<path d="M223.796 364.369L223.546 364.222C219.787 362.225 214.736 362.592 209.053 365.852C197.526 372.504 188.172 388.686 188.172 402.005C188.172 408.701 190.536 413.385 194.354 415.558C198.172 417.732 203.326 417.365 209.038 414.09C220.566 407.438 229.905 391.241 229.905 377.923C229.919 371.227 227.599 366.542 223.796 364.369ZM209.112 405.573C205.118 407.879 201.535 407.952 199.068 406.205C196.894 404.736 195.573 401.799 195.573 397.761C195.573 389.141 201.637 378.672 209.112 374.266C212.519 372.299 215.617 371.961 217.922 372.974C220.771 374.193 222.563 377.379 222.563 382.078C222.577 390.771 216.527 401.271 209.053 405.603L209.112 405.573Z" fill="#37474F"/>
<path d="M218.612 373.371L218.451 373.282C216.013 371.976 212.709 372.225 209.053 374.325C201.579 378.642 195.514 389.141 195.514 397.82C195.514 402.225 196.983 405.162 199.523 406.63C202.063 408.099 205.397 407.805 209.053 405.661C216.527 401.344 222.577 390.845 222.577 382.166C222.577 377.82 221.065 374.766 218.612 373.371ZM209.053 402.519C205.852 404.369 202.974 404.428 200.977 403.018C199.244 401.799 198.172 399.465 198.172 396.234C198.378 392.46 199.47 388.787 201.361 385.513C203.251 382.24 205.886 379.458 209.053 377.394C210.082 376.676 211.264 376.208 212.505 376.027C213.747 375.846 215.013 375.957 216.204 376.351C218.495 377.335 219.934 379.89 219.934 383.694C219.73 387.466 218.637 391.137 216.747 394.409C214.856 397.68 212.22 400.458 209.053 402.519Z" fill="#D11F40"/>
<path d="M265.72 365.647L283.62 355.324L277.658 351.873L259.758 362.21L265.72 365.647Z" fill="#D11F40"/>
<path d="M301.52 344.986L319.405 334.663L313.444 331.212L295.544 341.55L301.52 344.986Z" fill="#D11F40"/>
<path d="M337.305 324.325L355.191 314.002L349.229 310.551L331.329 320.889L337.305 324.325Z" fill="#D11F40"/>
<path d="M248.245 228.246C248.432 227.996 248.694 227.812 248.993 227.721C249.291 227.63 249.611 227.637 249.906 227.74C250.201 227.843 250.455 228.037 250.631 228.295C250.808 228.552 250.898 228.859 250.889 229.171C251.003 230.007 250.918 230.858 250.64 231.654C250.362 232.451 249.898 233.17 249.288 233.752C248.113 234.766 246.924 234.354 246.645 232.827C246.531 231.991 246.617 231.141 246.895 230.344C247.173 229.548 247.636 228.829 248.245 228.246Z" fill="#D11F40"/>
<path d="M262.019 234.736L250.051 227.82L247.423 234.149L259.435 241.08L262.019 234.736Z" fill="#D11F40"/>
<path d="M260.184 235.133C261.358 234.134 262.533 234.545 262.827 236.072C262.935 236.907 262.845 237.755 262.565 238.549C262.284 239.342 261.82 240.058 261.212 240.639C260.037 241.653 258.847 241.241 258.568 239.714C258.461 238.877 258.552 238.027 258.832 237.232C259.113 236.436 259.575 235.717 260.184 235.133Z" fill="#D11F40"/>
<path d="M352.166 293.048C352.166 293.341 352.166 293.606 352.166 293.899C352.166 294.487 352.166 295.089 352.166 295.691C349.787 294.677 346.689 295.015 343.282 296.983C335.808 301.3 329.743 311.799 329.743 320.478C329.743 324.501 331.065 327.409 333.238 328.921C332.628 329.355 331.996 329.757 331.344 330.125L330.654 330.478L328.583 338.275L316.601 331.594C312.812 329.406 310.477 324.736 310.477 318.07C310.477 304.751 319.817 288.569 331.344 281.902C337.041 278.613 342.195 278.275 346.028 280.434L357.775 287.012L358.025 287.159L352.166 293.048Z" fill="#455A64"/>
<path d="M358.011 287.027L357.761 286.88C354.002 284.883 348.95 285.25 343.267 288.51C331.74 295.162 322.386 311.344 322.386 324.663C322.386 331.359 324.751 336.043 328.569 338.216C332.386 340.39 337.541 340.023 343.253 336.748C354.78 330.096 364.119 313.899 364.119 300.581C364.163 293.885 361.799 289.2 358.011 287.027ZM343.326 328.231C339.332 330.536 335.749 330.61 333.282 328.862C331.109 327.394 329.787 324.457 329.787 320.419C329.787 311.799 335.852 301.329 343.326 296.924C346.733 294.956 349.831 294.619 352.21 295.632C355.059 296.851 356.85 300.037 356.85 304.736C356.821 313.429 350.742 323.929 343.267 328.231H343.326Z" fill="#37474F"/>
<path d="M356.821 304.795C356.821 313.429 350.771 323.885 343.297 328.29C339.317 330.595 335.734 330.669 333.268 328.936C332.273 328.154 331.456 327.17 330.871 326.048C330.286 324.927 329.947 323.694 329.875 322.431C330.378 322.196 330.868 321.936 331.344 321.652C338.818 317.35 344.868 306.851 344.868 298.158C344.875 297.514 344.836 296.872 344.751 296.234C345.871 295.641 347.102 295.288 348.366 295.197C349.63 295.106 350.899 295.279 352.093 295.705C355 296.939 356.821 300.096 356.821 304.795Z" fill="#263238"/>
<path d="M352.827 296.028L352.665 295.926C350.228 294.633 346.909 294.868 343.267 296.983C335.793 301.3 329.728 311.785 329.728 320.478C329.728 324.883 331.197 327.82 333.737 329.288C336.277 330.757 339.611 330.448 343.267 328.304C350.741 324.002 356.791 313.503 356.791 304.81C356.821 300.478 355.352 297.438 352.827 296.028ZM343.267 325.162C340.051 327.027 337.173 327.086 335.191 325.676C333.443 324.457 332.386 322.122 332.386 318.892C332.592 315.117 333.684 311.445 335.575 308.171C337.465 304.898 340.101 302.116 343.267 300.052C345.998 298.466 348.495 298.187 350.404 299.009C352.695 299.993 354.134 302.548 354.134 306.351C353.93 310.121 352.839 313.788 350.951 317.057C349.063 320.325 346.43 323.102 343.267 325.162Z" fill="#D11F40"/>
<path d="M331.329 309.186L365.103 289.685C369.023 287.409 356.292 274.119 346.821 273.224C341.606 272.594 336.317 273.095 331.314 274.692C331.314 274.692 338.524 283.929 337.291 289.171C336.057 294.413 331.329 309.186 331.329 309.186Z" fill="#D11F40"/>
<path d="M283.62 254.075C283.62 254.075 332.577 278.774 334.691 280.257C336.806 281.741 334.691 298.965 331.329 309.186C327.966 319.406 322.797 335.118 320.727 339.523C318.656 343.929 315.954 345.573 310.991 348.437L275.749 368.804L228.04 374.619L209.097 364.34L214.031 333.341C214.031 333.341 264.736 306.366 271.681 302.357C278.627 298.349 299.17 279.538 283.62 254.075Z" fill="#D11F40"/>
<path opacity="0.2" d="M283.62 254.075C283.62 254.075 332.577 278.774 334.691 280.257C336.806 281.741 334.691 298.965 331.329 309.186C327.966 319.406 322.797 335.118 320.727 339.523C318.656 343.929 315.954 345.573 310.991 348.437L275.749 368.804L228.04 374.619L209.097 364.34L214.031 333.341C214.031 333.341 264.736 306.366 271.681 302.357C278.627 298.349 299.17 279.538 283.62 254.075Z" fill="black"/>
<path d="M335.632 303.297C340.037 291.462 343.326 281.653 342.768 275.03C342.093 267.174 339.156 260.757 326.204 257.526C313.253 254.296 295.147 254.354 295.147 254.354L289.64 257.541C289.64 257.541 326.88 279.127 331.109 281.476C333.693 282.945 336.454 289.421 331.388 309.2L332.254 309.7C332.68 309.964 334.222 307.1 335.632 303.297Z" fill="#D11F40"/>
<path opacity="0.3" d="M335.632 303.297C340.037 291.462 343.326 281.653 342.768 275.03C342.093 267.174 339.156 260.757 326.204 257.526C313.253 254.296 295.147 254.354 295.147 254.354L289.64 257.541C289.64 257.541 326.88 279.127 331.109 281.476C333.693 282.945 336.454 289.421 331.388 309.2L332.254 309.7C332.68 309.964 334.222 307.1 335.632 303.297Z" fill="white"/>
<path d="M307.423 267.849L313.443 264.413C313.443 264.413 313.091 243.547 304.31 238.481C295.529 233.415 265.72 236.865 265.72 236.865L259.758 240.302L307.423 267.849Z" fill="#D11F40"/>
<path d="M287.893 243.253C285.029 244.912 285.029 247.585 287.893 249.23C289.498 250.047 291.274 250.473 293.076 250.473C294.878 250.473 296.654 250.047 298.26 249.23C301.108 247.585 301.108 244.898 298.26 243.253C296.652 242.442 294.877 242.02 293.076 242.02C291.276 242.02 289.5 242.442 287.893 243.253Z" fill="#F0F0F0"/>
<path d="M297.056 253.224C295.044 254.398 295.044 256.293 297.056 257.453C298.192 258.034 299.45 258.337 300.727 258.337C302.003 258.337 303.261 258.034 304.398 257.453C306.424 256.293 306.424 254.398 304.398 253.224C303.259 252.649 302.002 252.35 300.727 252.35C299.452 252.35 298.194 252.649 297.056 253.224Z" fill="#F0F0F0"/>
<path d="M273.987 240.595C271.96 241.755 271.96 243.65 273.987 244.824C275.125 245.399 276.383 245.698 277.658 245.698C278.933 245.698 280.19 245.399 281.329 244.824C283.355 243.65 283.355 241.755 281.329 240.595C280.193 240.014 278.934 239.711 277.658 239.711C276.381 239.711 275.123 240.014 273.987 240.595Z" fill="#F0F0F0"/>
<path d="M308.363 261.799C309.537 260.786 310.712 261.197 311.006 262.724C311.114 263.561 311.024 264.412 310.744 265.208C310.463 266.003 310 266.722 309.391 267.306C309.203 267.556 308.942 267.74 308.643 267.831C308.344 267.921 308.025 267.915 307.73 267.812C307.435 267.709 307.181 267.514 307.005 267.257C306.828 267 306.738 266.693 306.747 266.381C306.634 265.544 306.722 264.692 307.003 263.895C307.284 263.099 307.75 262.38 308.363 261.799Z" fill="#D11F40"/>
<path d="M322.063 268.29L310.081 261.374L307.467 267.702L319.464 274.619L322.063 268.29Z" fill="#D11F40"/>
<path d="M320.213 268.686C320.4 268.436 320.662 268.253 320.96 268.162C321.259 268.071 321.579 268.077 321.873 268.18C322.168 268.284 322.422 268.478 322.599 268.735C322.776 268.992 322.866 269.299 322.856 269.611C322.968 270.448 322.88 271.3 322.599 272.096C322.318 272.893 321.853 273.611 321.241 274.193C320.066 275.206 318.891 274.78 318.598 273.268C318.488 272.431 318.577 271.58 318.858 270.784C319.139 269.988 319.603 269.269 320.213 268.686Z" fill="#D11F40"/>
<path d="M320.213 268.686C320.4 268.436 320.662 268.253 320.96 268.162C321.259 268.071 321.579 268.077 321.873 268.18C322.168 268.284 322.422 268.478 322.599 268.735C322.776 268.992 322.866 269.299 322.856 269.611C322.968 270.448 322.88 271.3 322.599 272.096C322.318 272.893 321.853 273.611 321.241 274.193C320.066 275.206 318.891 274.78 318.598 273.268C318.488 272.431 318.577 271.58 318.858 270.784C319.139 269.988 319.603 269.269 320.213 268.686Z" fill="black"/>
<path d="M217.952 370.36C217.952 370.654 217.952 370.918 217.952 371.212C217.952 371.799 217.952 372.401 217.952 373.003C215.573 371.99 212.474 372.328 209.141 374.296C201.667 378.613 195.602 389.112 195.602 397.791C195.602 401.814 196.924 404.721 199.097 406.234C198.487 406.668 197.855 407.07 197.203 407.438L196.513 407.79L194.442 415.588L182.46 408.907C178.671 406.719 176.336 402.049 176.336 395.382C176.336 382.064 185.676 365.882 197.203 359.215C202.9 355.926 208.054 355.588 211.887 357.746L223.634 364.325L223.884 364.472L217.952 370.36Z" fill="#455A64"/>
<path d="M182.21 347.056L173.267 378.055L191.168 388.393L200.433 357.585L182.21 347.056Z" fill="#D11F40"/>
<path opacity="0.2" d="M182.21 347.056L173.267 378.055L191.168 388.393L200.433 357.585L182.21 347.056Z" fill="black"/>
<path d="M182.21 347.056C182.21 347.056 192.357 355.676 200.433 357.585C211.035 360.155 227.893 360.434 233.869 360.845C243.003 361.476 249.905 361.462 253.135 360.302C257.32 358.833 268.568 352.299 271.681 350.507C277.643 347.071 280.183 333.547 263.752 329.846C252.641 327.544 241.324 326.388 229.978 326.395L182.21 347.056Z" fill="#D11F40"/>
<path d="M283.4 343.092C282.889 344.369 282.543 345.706 282.372 347.071C281.899 348.49 281.787 350.004 282.049 351.476C283.168 353.328 284.929 354.702 286.997 355.338C288.487 355.67 290.029 355.691 291.527 355.4C293.025 355.11 294.447 354.514 295.705 353.65C298.745 351.829 301.035 349.626 305.353 348.393C308.438 347.739 311.345 346.422 313.869 344.531C316.263 342.607 319.464 337.291 314.883 336.058C310.301 334.824 300.345 339.171 291.27 339.567L283.4 343.092Z" fill="#37474F"/>
<path d="M283.4 337.423V344.208C283.677 344.97 284.16 345.641 284.795 346.146C285.43 346.651 286.192 346.971 286.997 347.071C287.735 347.179 288.488 347.098 289.185 346.836C290.285 346.416 291.238 345.683 291.927 344.728C292.616 343.774 293.01 342.638 293.062 341.462L293.326 337.423H283.4Z" fill="#FFA8A7"/>
<path d="M296.321 295.47C296.321 303.914 293.943 340.419 293.943 340.419C293.943 340.419 290.492 344.824 282.988 340.419L280.462 299.626L296.321 295.47Z" fill="#37474F"/>
<path d="M256.968 331.447L280.463 317.908C281.425 317.403 282.232 316.644 282.794 315.713C283.357 314.783 283.654 313.716 283.654 312.629C283.654 311.542 283.357 310.475 282.794 309.545C282.232 308.614 281.425 307.855 280.463 307.35L262.959 297.247C261.974 296.748 260.884 296.488 259.78 296.488C258.675 296.488 257.586 296.748 256.601 297.247L233.106 310.786C232.147 311.295 231.345 312.055 230.786 312.985C230.227 313.915 229.931 314.98 229.931 316.065C229.931 317.15 230.227 318.215 230.786 319.145C231.345 320.075 232.147 320.835 233.106 321.344L250.609 331.447C251.595 331.946 252.684 332.206 253.789 332.206C254.893 332.206 255.982 331.946 256.968 331.447Z" fill="#D11F40"/>
<path d="M256.968 331.447L280.463 317.908C281.425 317.403 282.232 316.644 282.794 315.713C283.357 314.783 283.654 313.716 283.654 312.629C283.654 311.542 283.357 310.475 282.794 309.545C282.232 308.614 281.425 307.855 280.463 307.35L262.959 297.247C261.974 296.748 260.884 296.488 259.78 296.488C258.675 296.488 257.586 296.748 256.601 297.247L233.106 310.786C232.147 311.295 231.345 312.055 230.786 312.985C230.227 313.915 229.931 314.98 229.931 316.065C229.931 317.15 230.227 318.215 230.786 319.145C231.345 320.075 232.147 320.835 233.106 321.344L250.609 331.447C251.595 331.946 252.684 332.206 253.789 332.206C254.893 332.206 255.982 331.946 256.968 331.447Z" fill="white"/>
<path d="M233.106 314.457L250.61 324.56C251.595 325.059 252.684 325.319 253.789 325.319C254.893 325.319 255.982 325.059 256.968 324.56L280.463 311.021C280.846 310.891 281.179 310.644 281.415 310.315C281.651 309.985 281.778 309.591 281.778 309.186C281.778 308.78 281.651 308.386 281.415 308.056C281.179 307.727 280.846 307.48 280.463 307.35L262.959 297.247C261.974 296.748 260.885 296.488 259.78 296.488C258.675 296.488 257.586 296.748 256.601 297.247L233.106 310.786C232.722 310.916 232.389 311.163 232.153 311.493C231.917 311.822 231.79 312.217 231.79 312.622C231.79 313.027 231.917 313.422 232.153 313.751C232.389 314.08 232.722 314.327 233.106 314.457Z" fill="#D11F40"/>
<path d="M247.423 224.589L244.442 236.88L231.637 237.658L234.398 220.625L247.423 224.589Z" fill="#FFA8A7"/>
<path d="M259.905 215.338C259.905 215.338 261.373 220.537 260.771 220.83C259.846 220.971 258.906 220.971 257.981 220.83L259.905 215.338Z" fill="#F28F8F"/>
<path d="M257.452 198.745C259.508 201.168 261.388 205.147 259.934 214.898C258.348 225.559 256.381 226.792 254.795 227.82C252.724 229.171 244.442 228.451 242.107 226.748C239.303 224.707 234.971 218.231 233.943 211.843C232.739 204.34 235.25 196.014 240.771 194.589C248.539 192.578 255.705 196.689 257.452 198.745Z" fill="#FFA8A7"/>
<path d="M233.106 224.075C235.088 226.131 239.156 226.689 241.711 227.159C244.266 227.629 252.122 228.143 254.442 222.548C256.762 216.954 255.176 212.93 258.025 211.579C260.874 210.228 263.723 209.347 264.471 208.642C265.22 207.937 265.235 198.73 257.585 193.958C249.934 189.186 238.216 188.084 230.507 197.761C224.662 205.236 227.056 217.761 233.106 224.075Z" fill="#455A64"/>
<path d="M240.815 227.233C242.797 227.409 249.068 226.425 250.962 223.84C252.856 221.256 253.62 216.631 253.899 214.208C253.924 213.253 254.274 212.336 254.891 211.608C255.508 210.879 256.354 210.382 257.291 210.199C259.185 209.597 263.37 207.541 263.37 207.541V206.396C264.72 206.311 266.073 206.311 267.423 206.396C268.304 206.557 267.819 207.864 265.587 208.995C263.355 210.125 257.232 212.313 256.292 213.062C255.352 213.811 254.912 216.968 254.163 220.331C253.414 223.694 251.094 228.716 240.815 227.233Z" fill="#37474F"/>
<path d="M258.436 241.139L265.778 236.924C266.483 234.795 265.353 233.723 263.356 233.855C261.358 233.987 261.975 232.049 260.756 231.506C259.156 230.771 258.245 231.183 257.526 230.845C256.806 230.507 256.498 229.655 255.558 229.553C251.358 229.156 248.495 235.147 248.495 235.147L258.436 241.139Z" fill="#F28F8F"/>
<path d="M208.598 295.059C208.598 295.059 241.035 278.98 246.689 276.381C252.342 273.782 261.211 270.008 265.925 270.008C267.767 270.16 269.492 270.971 270.785 272.293C272.077 273.615 272.849 275.358 272.959 277.203C273.02 280.036 272.858 282.869 272.474 285.676C263.562 288.6 254.455 290.891 245.22 292.534C231.725 294.883 208.598 295.059 208.598 295.059Z" fill="#37474F"/>
<path d="M212.122 285.764C212.122 292.431 211.49 299.362 214.266 304.237C217.041 309.112 232.078 320.39 246.233 318.025C255.485 316.469 282.944 303.826 282.944 303.826C282.944 303.826 296.263 298.936 296.322 295.456C296.41 290.331 296.057 283.106 284.442 283.415C273.855 283.694 242.621 290.213 242.621 290.213L212.122 285.764Z" fill="#455A64"/>
<path d="M221.182 232.945C226.204 227.702 229.596 227.262 232.005 227.908C237.539 229.492 242.897 231.637 247.996 234.31C247.996 234.31 246.057 253.077 255.235 258.481V287.732C255.235 287.732 254.956 290.904 250.962 294.061C247.438 296.836 239.464 299.641 229.949 298.848C218.642 297.908 212.122 285.764 212.122 285.764C212.122 285.764 211.828 261.843 213.429 252.343C215.309 241.256 219.449 234.766 221.182 232.945Z" fill="#455A64"/>
<path d="M255.235 259.905C255.235 259.905 249.684 255.5 247.996 249.773C247.996 249.773 248.656 258.76 255.235 263.312V259.905Z" fill="#37474F"/>
<path d="M306.615 273.708C309.252 273.817 311.845 273.013 313.958 271.432C313.958 271.432 316.513 266.469 319.655 266.895C319.655 266.895 320.213 264.78 318.921 264.09C317.629 263.4 317.071 263.591 316.542 262.857C316.013 262.122 315.955 260.757 313.605 260.757C312.636 260.757 312.768 260.067 310.419 259.788C308.069 259.509 305.749 264.927 304.031 264.927L306.615 273.708Z" fill="#FFA8A7"/>
<path d="M247.996 234.31C256.057 235.559 258.979 237.952 261.916 240.669C264.853 243.385 282.827 261.418 282.827 261.418L304.589 264.545C305.732 265.471 306.572 266.72 306.997 268.128C307.878 270.683 307.085 273.473 306.248 274.134C306.248 274.134 284.662 275.426 280.418 274.619C276.175 273.811 255.162 259.861 255.162 259.861C253.153 258.346 251.469 256.445 250.208 254.268C248.946 252.091 248.134 249.684 247.819 247.188C246.454 238.334 247.996 234.31 247.996 234.31Z" fill="#455A64"/>
<path d="M228.642 311.873L195.294 352.578C194.924 352.624 194.551 352.649 194.178 352.651C192.856 352.672 191.549 352.364 190.375 351.755L162.21 335.485L160.301 334.384C159.259 333.782 158.392 331.315 158.392 328.877V322.02C158.391 314.975 160.244 308.055 163.765 301.954C167.286 295.852 172.351 290.785 178.451 287.262L212.078 267.849L247.864 288.51L228.642 311.873Z" fill="#D11F40"/>
<g opacity="0.1">
<path d="M228.642 311.873L195.294 352.578C194.924 352.624 194.551 352.649 194.178 352.651C192.856 352.672 191.549 352.364 190.375 351.755L162.21 335.485L160.301 334.384C159.259 333.782 158.392 331.315 158.392 328.877V322.02C158.391 314.975 160.244 308.055 163.765 301.954C167.286 295.852 172.351 290.785 178.451 287.262L212.078 267.849L247.864 288.51L228.642 311.873Z" fill="black"/>
</g>
<path d="M217.144 325.911L247.82 288.525L212.034 267.864L178.422 287.262C174.074 289.779 170.238 293.092 167.115 297.027L217.144 325.911Z" fill="#D11F40"/>
<path d="M247.819 318.539C247.819 320.977 246.968 323.444 245.911 324.046L244.002 325.147L197.952 351.741C197.114 352.192 196.196 352.476 195.25 352.578C194.88 352.624 194.507 352.649 194.134 352.651V342.68C194.133 335.634 195.987 328.712 199.511 322.611C203.035 316.509 208.104 311.443 214.207 307.923L218.01 305.735L247.819 288.51V318.539Z" fill="#D11F40"/>
<g opacity="0.2">
<path d="M247.819 318.539C247.819 320.977 246.968 323.444 245.911 324.046L244.002 325.147L197.952 351.741C197.114 352.192 196.196 352.476 195.25 352.578C194.88 352.624 194.507 352.649 194.134 352.651V342.68C194.133 335.634 195.987 328.712 199.511 322.611C203.035 316.509 208.104 311.443 214.207 307.923L218.01 305.735L247.819 288.51V318.539Z" fill="black"/>
</g>
<path d="M257.702 368.907L275.719 368.848L301.505 353.958L276.248 372.21L257.232 372.475L257.702 368.907Z" fill="#E0E0E0"/>
<path d="M213.957 394.545C213.957 394.545 246.439 382.299 249.2 380.86C252.44 378.874 255.514 376.63 258.392 374.149C258.979 373.372 259.255 372.404 259.166 371.434C259.076 370.464 258.627 369.563 257.908 368.907C257.908 368.907 244.692 368.304 241.3 369.347C239.405 369.92 208.833 379.729 208.833 379.729L213.957 394.545Z" fill="#E0E0E0"/>
<path d="M212.504 380.86C209.817 378.554 207.115 379.509 206.454 382.974C206.201 384.886 206.404 386.831 207.044 388.65C207.685 390.469 208.745 392.112 210.14 393.444C212.827 395.749 215.529 394.81 216.19 391.329C216.441 389.417 216.238 387.473 215.598 385.654C214.957 383.835 213.897 382.193 212.504 380.86Z" fill="#455A64"/>
</svg>
