<svg width="60" height="70" viewBox="0 0 60 70" fill="none" xmlns="http://www.w3.org/2000/svg">
<path d="M16.4599 16.3817L7.61976 24.3833C10.6507 34.0633 11.648 27.8312 12.1532 24.3833C13.1603 27.5682 14.8732 23.6027 14.5235 20.8704C16.4599 23.6027 16.4038 17.7478 16.4599 16.3817Z" fill="#D11F40" stroke="#333333" stroke-width="1.87221" stroke-linejoin="round"/>
<path d="M55.6767 62.7415C55.7203 63.6695 55.3331 64.555 54.54 65.3405" stroke="#333333" stroke-width="1.87221" stroke-linecap="round" stroke-linejoin="round"/>
<path d="M11.1639 56.5535C19.742 60.9377 28.5851 57.0432 37.6258 53.773C46.6665 50.5027 54.1683 54.8372 55.1302 59.6774" stroke="#333333" stroke-width="1.87221" stroke-linecap="round" stroke-linejoin="round"/>
<path d="M38.0301 28.49C54.4728 16.9159 41.6496 5.88829 26.7147 11.396C11.7798 16.9038 6.45882 9.95746 5.89256 5.5813" stroke="#333333" stroke-width="1.87221" stroke-linecap="round" stroke-linejoin="round"/>
<path d="M5.3105 1.42462C5.80481 1.42462 6.20557 1.82821 6.20557 2.32606C6.20557 2.82392 5.80481 3.2275 5.3105 3.2275C4.81618 3.2275 4.41543 2.82392 4.41543 2.32606C4.41543 1.82821 4.81618 1.42462 5.3105 1.42462Z" stroke="#333333" stroke-width="1.87221" stroke-linecap="round" stroke-linejoin="round"/>
<path d="M51.2793 4.27335C51.7736 4.27335 52.1744 4.67693 52.1744 5.17479C52.1744 5.67264 51.7736 6.07623 51.2793 6.07623C50.7849 6.07623 50.3842 5.67264 50.3842 5.17479C50.3842 4.67693 50.7849 4.27335 51.2793 4.27335Z" stroke="#333333" stroke-width="1.87221" stroke-linecap="round" stroke-linejoin="round"/>
<path d="M52.6664 66.0489C53.158 66.1009 53.5147 66.5443 53.4632 67.0397C53.4116 67.535 52.9712 67.894 52.4797 67.842C51.988 67.7899 51.6313 67.3466 51.6828 66.8518C51.7344 66.3564 52.1747 65.9974 52.6664 66.0489Z" stroke="#333333" stroke-width="1.87221" stroke-linecap="round" stroke-linejoin="round"/>
<path d="M55.5227 46.6524C56.0171 46.6524 56.4178 47.056 56.4178 47.5538C56.4178 48.0517 56.0171 48.4553 55.5227 48.4553C55.0284 48.4553 54.6277 48.0517 54.6277 47.5538C54.6277 47.056 55.0284 46.6524 55.5227 46.6524Z" stroke="#333333" stroke-width="1.87221" stroke-linecap="round" stroke-linejoin="round"/>
<path d="M22.1178 43.9815L40.1518 43.4473L32.7261 40.9544L8.50399 41.8448L22.1178 43.9815Z" stroke="#333333" stroke-width="1.87221" stroke-linejoin="round"/>
<path d="M37.4997 37.9274L31.6652 18.1624C27.1854 18.1625 11.3328 19.5869 7.44314 20.1211C7.44314 26.8113 7.68284 37.0438 8.32716 41.8447C14.5153 41.8447 27.422 41.0909 32.7857 41.0909C34.3321 39.9759 34.9225 39.9406 37.4997 37.9274Z" stroke="#333333" stroke-width="1.87221" stroke-linejoin="round"/>
<path d="M40.1518 43.4469L39.2678 27.5993C39.2678 27.5993 33.6101 19.5865 31.6652 18.162L32.768 41.0903C35.0245 41.4882 40.1518 43.4469 40.1518 43.4469Z" stroke="#333333" stroke-width="1.87221" stroke-linejoin="round"/>
<path d="M16.3387 19.2303C17.1118 19.2303 22.7816 18.5413 23.1038 18.6962V25.2942L21.6541 23.9004L19.7212 25.2942L17.7884 23.9004L16.3387 25.4624V19.2303Z" fill="#D11F40"/>
<path d="M23.1038 18.6962H23.6599C23.6599 18.4804 23.5367 18.2837 23.3433 18.1907L23.1038 18.6962ZM16.3387 19.2302V18.6702C16.0315 18.6702 15.7826 18.9209 15.7826 19.2302H16.3387ZM16.3387 25.4624H15.7826C15.7826 25.6923 15.9222 25.899 16.1345 25.9833C16.347 26.0678 16.589 26.0128 16.7449 25.8448L16.3387 25.4624ZM23.1038 25.2942L22.7198 25.6993C22.8807 25.854 23.1179 25.8972 23.3225 25.8091C23.5271 25.7209 23.6599 25.5183 23.6599 25.2942H23.1038ZM17.7883 23.9004L18.1121 23.445C17.8851 23.2813 17.5727 23.3125 17.3821 23.518L17.7883 23.9004ZM21.6541 23.9004L22.0381 23.4953C21.8448 23.3095 21.5476 23.2883 21.3304 23.445L21.6541 23.9004ZM19.7212 25.2942L19.3975 25.7495C19.591 25.8891 19.8514 25.8891 20.0449 25.7495L19.7212 25.2942ZM23.3433 18.1907C23.2596 18.1505 23.1805 18.1366 23.1456 18.131C23.1005 18.1238 23.0553 18.1199 23.0153 18.1175C22.9347 18.1128 22.8403 18.1126 22.7404 18.1147C22.5389 18.119 22.2769 18.1341 21.9795 18.1557C21.3828 18.199 20.6136 18.2713 19.8363 18.3478C19.0544 18.4247 18.2695 18.5053 17.6236 18.5675C16.964 18.6311 16.4984 18.6702 16.3387 18.6702V19.7903C16.5655 19.7903 17.0986 19.7433 17.7295 19.6826C18.3743 19.6205 19.1719 19.5385 19.9444 19.4626C20.7215 19.3861 21.4783 19.3151 22.0596 19.2729C22.3511 19.2517 22.591 19.2383 22.7641 19.2346C22.8516 19.2327 22.9128 19.2335 22.9511 19.2358C22.9704 19.2369 22.9755 19.238 22.9707 19.2372C22.9681 19.2368 22.9581 19.2351 22.9434 19.2312C22.9303 19.2277 22.9009 19.2193 22.8642 19.2016L23.3433 18.1907ZM15.7826 19.2302V25.4624H16.8948V19.2302H15.7826ZM23.6599 25.2942V18.6962H22.5477V25.2942H23.6599ZM16.7449 25.8448L18.1946 24.2828L17.3821 23.518L15.9324 25.08L16.7449 25.8448ZM21.2701 24.3055L22.7198 25.6993L23.4878 24.8891L22.0381 23.4953L21.2701 24.3055ZM17.4646 24.3557L19.3975 25.7495L20.0449 24.8388L18.1121 23.445L17.4646 24.3557ZM20.0449 25.7495L21.9778 24.3557L21.3304 23.445L19.3975 24.8388L20.0449 25.7495Z" fill="#333333"/>
<path fill-rule="evenodd" clip-rule="evenodd" d="M9.45147 33.4065C9.43697 33.2538 9.55394 33.1177 9.71279 33.1023C12.1812 32.8644 16.6333 32.7198 18.5465 32.6771C18.6974 32.6738 18.8245 32.7828 18.8383 32.9272C18.9327 33.9204 19.0967 36.5831 19.0019 39.3292C18.9967 39.4781 18.8704 39.5977 18.7155 39.6002C16.9477 39.6288 12.7828 39.6609 10.2854 39.5599C10.1419 39.5541 10.0256 39.4476 10.0125 39.31L9.45147 33.4065ZM10.053 33.6288L10.5648 39.0141C12.9369 39.0983 16.6044 39.075 18.4331 39.0488C18.5019 36.6361 18.3761 34.3276 18.2858 33.2391C16.3325 33.2864 12.4282 33.419 10.053 33.6288Z" fill="#333333"/>
<path d="M16.6097 34.7737L11.1872 34.9694C10.9647 34.9774 10.7938 35.1644 10.814 35.3775C10.8326 35.5726 11.0057 35.7189 11.2094 35.7115L16.6319 35.5158C16.8544 35.5078 17.0253 35.3208 17.0051 35.1077C16.9865 34.9126 16.8134 34.7663 16.6097 34.7737Z" fill="#333333"/>
<path d="M16.5095 36.6403L13.3973 36.641C13.1697 36.6411 12.9902 36.8302 13.0109 37.0481C13.0289 37.2374 13.1931 37.3814 13.3908 37.3814L16.5029 37.3806C16.7304 37.3806 16.91 37.1914 16.8892 36.9735C16.8712 36.7843 16.707 36.6402 16.5095 36.6403Z" fill="#333333"/>
<path d="M41.0357 29.2023L53.412 43.9815" stroke="#333333" stroke-width="1.87221" stroke-linecap="round" stroke-linejoin="round"/>
<path d="M51.2904 44.6938L52.7048 45.7623" stroke="#333333" stroke-width="1.87221" stroke-linecap="round" stroke-linejoin="round"/>
<path d="M41.9195 43.8037L51.9973 47.7211M41.3891 37.0374L49.3453 43.2695" stroke="#333333" stroke-width="1.87221" stroke-linecap="round" stroke-linejoin="round"/>
<path d="M27.0681 45.0501L49.1686 48.6114" stroke="#333333" stroke-width="1.87221" stroke-linecap="round" stroke-linejoin="round"/>
<path d="M49.3455 17.4502L35.5548 25.3916C40.283 34.9989 41.8389 28.8136 42.6269 25.3916C44.198 28.5526 46.8703 24.6168 46.3247 21.9052C49.3455 24.6168 49.2579 18.8061 49.3455 17.4502Z" fill="#D11F40" stroke="#333333" stroke-width="1.87221" stroke-linejoin="round"/>
</svg>
